<?xml version="1.0" encoding="utf-8" standalone="no"?>
<!DOCTYPE svg PUBLIC "-//W3C//DTD SVG 1.1//EN"
  "http://www.w3.org/Graphics/SVG/1.1/DTD/svg11.dtd">
<svg xmlns:xlink="http://www.w3.org/1999/xlink" width="856.8pt" height="713.885pt" viewBox="0 0 856.8 713.885" xmlns="http://www.w3.org/2000/svg" version="1.1">
 <metadata>
  <rdf:RDF xmlns:dc="http://purl.org/dc/elements/1.1/" xmlns:cc="http://creativecommons.org/ns#" xmlns:rdf="http://www.w3.org/1999/02/22-rdf-syntax-ns#">
   <cc:Work>
    <dc:type rdf:resource="http://purl.org/dc/dcmitype/StillImage"/>
    <dc:date>2025-05-18T13:52:31.047014</dc:date>
    <dc:format>image/svg+xml</dc:format>
    <dc:creator>
     <cc:Agent>
      <dc:title>Matplotlib v3.9.2, https://matplotlib.org/</dc:title>
     </cc:Agent>
    </dc:creator>
   </cc:Work>
  </rdf:RDF>
 </metadata>
 <defs>
  <style type="text/css">*{stroke-linejoin: round; stroke-linecap: butt}</style>
 </defs>
 <g id="figure_1">
  <g id="patch_1">
   <path d="M 0 713.885 
L 856.8 713.885 
L 856.8 0 
L 0 0 
z
" style="fill: #ffffff"/>
  </g>
  <g id="axes_1">
   <g id="patch_2">
    <path d="M 7.2 684.2 
L 849.6 684.2 
L 849.6 7.2 
L 7.2 7.2 
z
" style="fill: #ffffff"/>
   </g>
   <g id="PolyCollection_1">
    <defs>
     <path id="m71500b2a87" d="M 357.052959 -664.3725 
L 357.052959 -665.034477 
L 359.62447 -665.172584 
L 362.19598 -665.331518 
L 364.767491 -665.512679 
L 367.339002 -665.717247 
L 369.910513 -665.946147 
L 372.482024 -666.200022 
L 375.053535 -666.479237 
L 377.625045 -666.783898 
L 380.196556 -667.113903 
L 382.768067 -667.469025 
L 385.339578 -667.849014 
L 387.911089 -668.25372 
L 390.4826 -668.683236 
L 393.054111 -669.138034 
L 395.625621 -669.619095 
L 398.197132 -670.12801 
L 400.768643 -670.667036 
L 403.340154 -671.239098 
L 405.911665 -671.847722 
L 408.483176 -672.496885 
L 411.054686 -673.190787 
L 413.626197 -673.933544 
L 416.197708 -674.728816 
L 418.769219 -675.579382 
L 421.34073 -676.486688 
L 423.912241 -677.45041 
L 426.483752 -678.468045 
L 429.055262 -679.53458 
L 431.626773 -680.642264 
L 434.198284 -681.780524 
L 436.769795 -682.936025 
L 439.341306 -684.092901 
L 441.912817 -685.233164 
L 444.484328 -686.337249 
L 447.055838 -687.384708 
L 449.627349 -688.35499 
L 452.19886 -689.228275 
L 454.770371 -689.986316 
L 457.341882 -690.61323 
L 459.913393 -691.096192 
L 462.484903 -691.425994 
L 465.056414 -691.597429 
L 467.627925 -691.609478 
L 470.199436 -691.465297 
L 472.770947 -691.171999 
L 475.342458 -690.740263 
L 477.913969 -690.183782 
L 480.485479 -689.518609 
L 483.05699 -688.762422 
L 485.628501 -687.933774 
L 488.200012 -687.051362 
L 490.771523 -686.133354 
L 493.343034 -685.196809 
L 495.914544 -684.257212 
L 498.486055 -683.32814 
L 501.057566 -682.421046 
L 503.629077 -681.545183 
L 506.200588 -680.707621 
L 508.772099 -679.913366 
L 511.34361 -679.165532 
L 513.91512 -678.465572 
L 516.486631 -677.813512 
L 519.058142 -677.208198 
L 521.629653 -676.647526 
L 524.201164 -676.128644 
L 526.772675 -675.648134 
L 529.344186 -675.202158 
L 531.915696 -674.786579 
L 534.487207 -674.39707 
L 537.058718 -674.029202 
L 539.630229 -673.678535 
L 542.20174 -673.3407 
L 544.773251 -673.011495 
L 547.344761 -672.686981 
L 549.916272 -672.363582 
L 552.487783 -672.03819 
L 555.059294 -671.708255 
L 557.630805 -671.371872 
L 560.202316 -671.027843 
L 562.773827 -670.675712 
L 565.345337 -670.315774 
L 567.916848 -669.949046 
L 570.488359 -669.577208 
L 573.05987 -669.202513 
L 575.631381 -668.827665 
L 578.202892 -668.455688 
L 580.774403 -668.089778 
L 583.345913 -667.733149 
L 585.917424 -667.388896 
L 588.488935 -667.059866 
L 591.060446 -666.748543 
L 593.631957 -666.456976 
L 596.203468 -666.186714 
L 598.774978 -665.938786 
L 601.346489 -665.7137 
L 603.918 -665.511467 
L 606.489511 -665.331644 
L 609.061022 -665.173398 
L 611.632533 -665.035573 
L 611.632533 -664.3725 
L 611.632533 -664.3725 
L 609.061022 -664.3725 
L 606.489511 -664.3725 
L 603.918 -664.3725 
L 601.346489 -664.3725 
L 598.774978 -664.3725 
L 596.203468 -664.3725 
L 593.631957 -664.3725 
L 591.060446 -664.3725 
L 588.488935 -664.3725 
L 585.917424 -664.3725 
L 583.345913 -664.3725 
L 580.774403 -664.3725 
L 578.202892 -664.3725 
L 575.631381 -664.3725 
L 573.05987 -664.3725 
L 570.488359 -664.3725 
L 567.916848 -664.3725 
L 565.345337 -664.3725 
L 562.773827 -664.3725 
L 560.202316 -664.3725 
L 557.630805 -664.3725 
L 555.059294 -664.3725 
L 552.487783 -664.3725 
L 549.916272 -664.3725 
L 547.344761 -664.3725 
L 544.773251 -664.3725 
L 542.20174 -664.3725 
L 539.630229 -664.3725 
L 537.058718 -664.3725 
L 534.487207 -664.3725 
L 531.915696 -664.3725 
L 529.344186 -664.3725 
L 526.772675 -664.3725 
L 524.201164 -664.3725 
L 521.629653 -664.3725 
L 519.058142 -664.3725 
L 516.486631 -664.3725 
L 513.91512 -664.3725 
L 511.34361 -664.3725 
L 508.772099 -664.3725 
L 506.200588 -664.3725 
L 503.629077 -664.3725 
L 501.057566 -664.3725 
L 498.486055 -664.3725 
L 495.914544 -664.3725 
L 493.343034 -664.3725 
L 490.771523 -664.3725 
L 488.200012 -664.3725 
L 485.628501 -664.3725 
L 483.05699 -664.3725 
L 480.485479 -664.3725 
L 477.913969 -664.3725 
L 475.342458 -664.3725 
L 472.770947 -664.3725 
L 470.199436 -664.3725 
L 467.627925 -664.3725 
L 465.056414 -664.3725 
L 462.484903 -664.3725 
L 459.913393 -664.3725 
L 457.341882 -664.3725 
L 454.770371 -664.3725 
L 452.19886 -664.3725 
L 449.627349 -664.3725 
L 447.055838 -664.3725 
L 444.484328 -664.3725 
L 441.912817 -664.3725 
L 439.341306 -664.3725 
L 436.769795 -664.3725 
L 434.198284 -664.3725 
L 431.626773 -664.3725 
L 429.055262 -664.3725 
L 426.483752 -664.3725 
L 423.912241 -664.3725 
L 421.34073 -664.3725 
L 418.769219 -664.3725 
L 416.197708 -664.3725 
L 413.626197 -664.3725 
L 411.054686 -664.3725 
L 408.483176 -664.3725 
L 405.911665 -664.3725 
L 403.340154 -664.3725 
L 400.768643 -664.3725 
L 398.197132 -664.3725 
L 395.625621 -664.3725 
L 393.054111 -664.3725 
L 390.4826 -664.3725 
L 387.911089 -664.3725 
L 385.339578 -664.3725 
L 382.768067 -664.3725 
L 380.196556 -664.3725 
L 377.625045 -664.3725 
L 375.053535 -664.3725 
L 372.482024 -664.3725 
L 369.910513 -664.3725 
L 367.339002 -664.3725 
L 364.767491 -664.3725 
L 362.19598 -664.3725 
L 359.62447 -664.3725 
L 357.052959 -664.3725 
z
" style="stroke: #808080; stroke-opacity: 0.8; stroke-width: 0.8"/>
    </defs>
    <g clip-path="url(#p88489f6649)">
     <use xlink:href="#m71500b2a87" x="0" y="713.885" style="fill: #2b8e70; fill-opacity: 0.8; stroke: #808080; stroke-opacity: 0.8; stroke-width: 0.8"/>
    </g>
   </g>
   <g id="PolyCollection_2">
    <defs>
     <path id="m708916ec44" d="M 87.322362 -664.007792 
L 87.322362 -664.3725 
L 92.679514 -664.3725 
L 98.036666 -664.3725 
L 103.393817 -664.3725 
L 108.750969 -664.3725 
L 114.108121 -664.3725 
L 119.465273 -664.3725 
L 124.822425 -664.3725 
L 130.179577 -664.3725 
L 135.536729 -664.3725 
L 140.89388 -664.3725 
L 146.251032 -664.3725 
L 151.608184 -664.3725 
L 156.965336 -664.3725 
L 162.322488 -664.3725 
L 167.67964 -664.3725 
L 173.036792 -664.3725 
L 178.393943 -664.3725 
L 183.751095 -664.3725 
L 189.108247 -664.3725 
L 194.465399 -664.3725 
L 199.822551 -664.3725 
L 205.179703 -664.3725 
L 210.536855 -664.3725 
L 215.894006 -664.3725 
L 221.251158 -664.3725 
L 226.60831 -664.3725 
L 231.965462 -664.3725 
L 237.322614 -664.3725 
L 242.679766 -664.3725 
L 248.036917 -664.3725 
L 253.394069 -664.3725 
L 258.751221 -664.3725 
L 264.108373 -664.3725 
L 269.465525 -664.3725 
L 274.822677 -664.3725 
L 280.179829 -664.3725 
L 285.53698 -664.3725 
L 290.894132 -664.3725 
L 296.251284 -664.3725 
L 301.608436 -664.3725 
L 306.965588 -664.3725 
L 312.32274 -664.3725 
L 317.679892 -664.3725 
L 323.037043 -664.3725 
L 328.394195 -664.3725 
L 333.751347 -664.3725 
L 339.108499 -664.3725 
L 344.465651 -664.3725 
L 349.822803 -664.3725 
L 355.179955 -664.3725 
L 360.537106 -664.3725 
L 365.894258 -664.3725 
L 371.25141 -664.3725 
L 376.608562 -664.3725 
L 381.965714 -664.3725 
L 387.322866 -664.3725 
L 392.680018 -664.3725 
L 398.037169 -664.3725 
L 403.394321 -664.3725 
L 408.751473 -664.3725 
L 414.108625 -664.3725 
L 419.465777 -664.3725 
L 424.822929 -664.3725 
L 430.180081 -664.3725 
L 435.537232 -664.3725 
L 440.894384 -664.3725 
L 446.251536 -664.3725 
L 451.608688 -664.3725 
L 456.96584 -664.3725 
L 462.322992 -664.3725 
L 467.680143 -664.3725 
L 473.037295 -664.3725 
L 478.394447 -664.3725 
L 483.751599 -664.3725 
L 489.108751 -664.3725 
L 494.465903 -664.3725 
L 499.823055 -664.3725 
L 505.180206 -664.3725 
L 510.537358 -664.3725 
L 515.89451 -664.3725 
L 521.251662 -664.3725 
L 526.608814 -664.3725 
L 531.965966 -664.3725 
L 537.323118 -664.3725 
L 542.680269 -664.3725 
L 548.037421 -664.3725 
L 553.394573 -664.3725 
L 558.751725 -664.3725 
L 564.108877 -664.3725 
L 569.466029 -664.3725 
L 574.823181 -664.3725 
L 580.180332 -664.3725 
L 585.537484 -664.3725 
L 590.894636 -664.3725 
L 596.251788 -664.3725 
L 601.60894 -664.3725 
L 606.966092 -664.3725 
L 612.323244 -664.3725 
L 617.680395 -664.3725 
L 617.680395 -664.005811 
L 617.680395 -664.005811 
L 612.323244 -663.929545 
L 606.966092 -663.841723 
L 601.60894 -663.741567 
L 596.251788 -663.628449 
L 590.894636 -663.501934 
L 585.537484 -663.361815 
L 580.180332 -663.208154 
L 574.823181 -663.041305 
L 569.466029 -662.861934 
L 564.108877 -662.67103 
L 558.751725 -662.469894 
L 553.394573 -662.260125 
L 548.037421 -662.043578 
L 542.680269 -661.822326 
L 537.323118 -661.598585 
L 531.965966 -661.374648 
L 526.608814 -661.1528 
L 521.251662 -660.935222 
L 515.89451 -660.723897 
L 510.537358 -660.520518 
L 505.180206 -660.326391 
L 499.823055 -660.142354 
L 494.465903 -659.968695 
L 489.108751 -659.805101 
L 483.751599 -659.650607 
L 478.394447 -659.503581 
L 473.037295 -659.361722 
L 467.680143 -659.222091 
L 462.322992 -659.08117 
L 456.96584 -658.934947 
L 451.608688 -658.779036 
L 446.251536 -658.608821 
L 440.894384 -658.419633 
L 435.537232 -658.206943 
L 430.180081 -657.966574 
L 424.822929 -657.694922 
L 419.465777 -657.38918 
L 414.108625 -657.047543 
L 408.751473 -656.669397 
L 403.394321 -656.255474 
L 398.037169 -655.80796 
L 392.680018 -655.330546 
L 387.322866 -654.828428 
L 381.965714 -654.308226 
L 376.608562 -653.777846 
L 371.25141 -653.246276 
L 365.894258 -652.72332 
L 360.537106 -652.219284 
L 355.179955 -651.744636 
L 349.822803 -651.309632 
L 344.465651 -650.923957 
L 339.108499 -650.596368 
L 333.751347 -650.334383 
L 328.394195 -650.144012 
L 323.037043 -650.029555 
L 317.679892 -649.993465 
L 312.32274 -650.036301 
L 306.965588 -650.156747 
L 301.608436 -650.351716 
L 296.251284 -650.616516 
L 290.894132 -650.94508 
L 285.53698 -651.33024 
L 280.179829 -651.764025 
L 274.822677 -652.237981 
L 269.465525 -652.74348 
L 264.108373 -653.272024 
L 258.751221 -653.815503 
L 253.394069 -654.366427 
L 248.036917 -654.918097 
L 242.679766 -655.464726 
L 237.322614 -656.001513 
L 231.965462 -656.52465 
L 226.60831 -657.031295 
L 221.251158 -657.519492 
L 215.894006 -657.988069 
L 210.536855 -658.436503 
L 205.179703 -658.864789 
L 199.822551 -659.273287 
L 194.465399 -659.662593 
L 189.108247 -660.033414 
L 183.751095 -660.386471 
L 178.393943 -660.722414 
L 173.036792 -661.041778 
L 167.67964 -661.344951 
L 162.322488 -661.632167 
L 156.965336 -661.903526 
L 151.608184 -662.159021 
L 146.251032 -662.398576 
L 140.89388 -662.622092 
L 135.536729 -662.829492 
L 130.179577 -663.020761 
L 124.822425 -663.195983 
L 119.465273 -663.355362 
L 114.108121 -663.499242 
L 108.750969 -663.628111 
L 103.393817 -663.742596 
L 98.036666 -663.84345 
L 92.679514 -663.931534 
L 87.322362 -664.007792 
z
" style="stroke: #808080; stroke-opacity: 0.8; stroke-width: 0.8"/>
    </defs>
    <g clip-path="url(#p88489f6649)">
     <use xlink:href="#m708916ec44" x="0" y="713.885" style="fill: #166c9c; fill-opacity: 0.8; stroke: #808080; stroke-opacity: 0.8; stroke-width: 0.8"/>
    </g>
   </g>
   <g id="PolyCollection_3">
    <defs>
     <path id="md72adfa580" d="M 218.174266 -579.7475 
L 218.174266 -580.11525 
L 222.861062 -580.193016 
L 227.547858 -580.282119 
L 232.234654 -580.382987 
L 236.92145 -580.495779 
L 241.608246 -580.620334 
L 246.295042 -580.756129 
L 250.981839 -580.90225 
L 255.668635 -581.057382 
L 260.355431 -581.21982 
L 265.042227 -581.387504 
L 269.729023 -581.558084 
L 274.415819 -581.729003 
L 279.102615 -581.897611 
L 283.789411 -582.061295 
L 288.476207 -582.217625 
L 293.163003 -582.364506 
L 297.849799 -582.500323 
L 302.536595 -582.624085 
L 307.223391 -582.735536 
L 311.910188 -582.83525 
L 316.596984 -582.924682 
L 321.28378 -583.006181 
L 325.970576 -583.082965 
L 330.657372 -583.159049 
L 335.344168 -583.239135 
L 340.030964 -583.328471 
L 344.71776 -583.432674 
L 349.404556 -583.557548 
L 354.091352 -583.708875 
L 358.778148 -583.89221 
L 363.464944 -584.112687 
L 368.15174 -584.374825 
L 372.838537 -584.682355 
L 377.525333 -585.03807 
L 382.212129 -585.443685 
L 386.898925 -585.899735 
L 391.585721 -586.405481 
L 396.272517 -586.958847 
L 400.959313 -587.556379 
L 405.646109 -588.193233 
L 410.332905 -588.86318 
L 415.019701 -589.55866 
L 419.706497 -590.270856 
L 424.393293 -590.989815 
L 429.080089 -591.704616 
L 433.766886 -592.403573 
L 438.453682 -593.074497 
L 443.140478 -593.704988 
L 447.827274 -594.282779 
L 452.51407 -594.796091 
L 457.200866 -595.23402 
L 461.887662 -595.586908 
L 466.574458 -595.846706 
L 471.261254 -596.007296 
L 475.94805 -596.064755 
L 480.634846 -596.017542 
L 485.321642 -595.866608 
L 490.008438 -595.615397 
L 494.695235 -595.269746 
L 499.382031 -594.83769 
L 504.068827 -594.329164 
L 508.755623 -593.755629 
L 513.442419 -593.129631 
L 518.129215 -592.464325 
L 522.816011 -591.772976 
L 527.502807 -591.068478 
L 532.189603 -590.362905 
L 536.876399 -589.667123 
L 541.563195 -588.990478 
L 546.249991 -588.340579 
L 550.936787 -587.72318 
L 555.623584 -587.14216 
L 560.31038 -586.599598 
L 564.997176 -586.095934 
L 569.683972 -585.6302 
L 574.370768 -585.200289 
L 579.057564 -584.803267 
L 583.74436 -584.435681 
L 588.431156 -584.093852 
L 593.117952 -583.774147 
L 597.804748 -583.4732 
L 602.491544 -583.18808 
L 607.17834 -582.916408 
L 611.865136 -582.656408 
L 616.551933 -582.406914 
L 621.238729 -582.167327 
L 625.925525 -581.937535 
L 630.612321 -581.717817 
L 635.299117 -581.508722 
L 639.985913 -581.310955 
L 644.672709 -581.125263 
L 649.359505 -580.95234 
L 654.046301 -580.792746 
L 658.733097 -580.646853 
L 663.419893 -580.514805 
L 668.106689 -580.396509 
L 672.793485 -580.29164 
L 677.480282 -580.199657 
L 682.167078 -580.119839 
L 682.167078 -579.7475 
L 682.167078 -579.7475 
L 677.480282 -579.7475 
L 672.793485 -579.7475 
L 668.106689 -579.7475 
L 663.419893 -579.7475 
L 658.733097 -579.7475 
L 654.046301 -579.7475 
L 649.359505 -579.7475 
L 644.672709 -579.7475 
L 639.985913 -579.7475 
L 635.299117 -579.7475 
L 630.612321 -579.7475 
L 625.925525 -579.7475 
L 621.238729 -579.7475 
L 616.551933 -579.7475 
L 611.865136 -579.7475 
L 607.17834 -579.7475 
L 602.491544 -579.7475 
L 597.804748 -579.7475 
L 593.117952 -579.7475 
L 588.431156 -579.7475 
L 583.74436 -579.7475 
L 579.057564 -579.7475 
L 574.370768 -579.7475 
L 569.683972 -579.7475 
L 564.997176 -579.7475 
L 560.31038 -579.7475 
L 555.623584 -579.7475 
L 550.936787 -579.7475 
L 546.249991 -579.7475 
L 541.563195 -579.7475 
L 536.876399 -579.7475 
L 532.189603 -579.7475 
L 527.502807 -579.7475 
L 522.816011 -579.7475 
L 518.129215 -579.7475 
L 513.442419 -579.7475 
L 508.755623 -579.7475 
L 504.068827 -579.7475 
L 499.382031 -579.7475 
L 494.695235 -579.7475 
L 490.008438 -579.7475 
L 485.321642 -579.7475 
L 480.634846 -579.7475 
L 475.94805 -579.7475 
L 471.261254 -579.7475 
L 466.574458 -579.7475 
L 461.887662 -579.7475 
L 457.200866 -579.7475 
L 452.51407 -579.7475 
L 447.827274 -579.7475 
L 443.140478 -579.7475 
L 438.453682 -579.7475 
L 433.766886 -579.7475 
L 429.080089 -579.7475 
L 424.393293 -579.7475 
L 419.706497 -579.7475 
L 415.019701 -579.7475 
L 410.332905 -579.7475 
L 405.646109 -579.7475 
L 400.959313 -579.7475 
L 396.272517 -579.7475 
L 391.585721 -579.7475 
L 386.898925 -579.7475 
L 382.212129 -579.7475 
L 377.525333 -579.7475 
L 372.838537 -579.7475 
L 368.15174 -579.7475 
L 363.464944 -579.7475 
L 358.778148 -579.7475 
L 354.091352 -579.7475 
L 349.404556 -579.7475 
L 344.71776 -579.7475 
L 340.030964 -579.7475 
L 335.344168 -579.7475 
L 330.657372 -579.7475 
L 325.970576 -579.7475 
L 321.28378 -579.7475 
L 316.596984 -579.7475 
L 311.910188 -579.7475 
L 307.223391 -579.7475 
L 302.536595 -579.7475 
L 297.849799 -579.7475 
L 293.163003 -579.7475 
L 288.476207 -579.7475 
L 283.789411 -579.7475 
L 279.102615 -579.7475 
L 274.415819 -579.7475 
L 269.729023 -579.7475 
L 265.042227 -579.7475 
L 260.355431 -579.7475 
L 255.668635 -579.7475 
L 250.981839 -579.7475 
L 246.295042 -579.7475 
L 241.608246 -579.7475 
L 236.92145 -579.7475 
L 232.234654 -579.7475 
L 227.547858 -579.7475 
L 222.861062 -579.7475 
L 218.174266 -579.7475 
z
" style="stroke: #808080; stroke-opacity: 0.8; stroke-width: 0.8"/>
    </defs>
    <g clip-path="url(#p88489f6649)">
     <use xlink:href="#md72adfa580" x="0" y="713.885" style="fill: #2b8e70; fill-opacity: 0.8; stroke: #808080; stroke-opacity: 0.8; stroke-width: 0.8"/>
    </g>
   </g>
   <g id="PolyCollection_4">
    <defs>
     <path id="ma4a1330535" d="M 68.275645 -579.266859 
L 68.275645 -579.7475 
L 73.937786 -579.7475 
L 79.599928 -579.7475 
L 85.262069 -579.7475 
L 90.924211 -579.7475 
L 96.586352 -579.7475 
L 102.248493 -579.7475 
L 107.910635 -579.7475 
L 113.572776 -579.7475 
L 119.234918 -579.7475 
L 124.897059 -579.7475 
L 130.559201 -579.7475 
L 136.221342 -579.7475 
L 141.883484 -579.7475 
L 147.545625 -579.7475 
L 153.207766 -579.7475 
L 158.869908 -579.7475 
L 164.532049 -579.7475 
L 170.194191 -579.7475 
L 175.856332 -579.7475 
L 181.518474 -579.7475 
L 187.180615 -579.7475 
L 192.842756 -579.7475 
L 198.504898 -579.7475 
L 204.167039 -579.7475 
L 209.829181 -579.7475 
L 215.491322 -579.7475 
L 221.153464 -579.7475 
L 226.815605 -579.7475 
L 232.477747 -579.7475 
L 238.139888 -579.7475 
L 243.802029 -579.7475 
L 249.464171 -579.7475 
L 255.126312 -579.7475 
L 260.788454 -579.7475 
L 266.450595 -579.7475 
L 272.112737 -579.7475 
L 277.774878 -579.7475 
L 283.43702 -579.7475 
L 289.099161 -579.7475 
L 294.761302 -579.7475 
L 300.423444 -579.7475 
L 306.085585 -579.7475 
L 311.747727 -579.7475 
L 317.409868 -579.7475 
L 323.07201 -579.7475 
L 328.734151 -579.7475 
L 334.396293 -579.7475 
L 340.058434 -579.7475 
L 345.720575 -579.7475 
L 351.382717 -579.7475 
L 357.044858 -579.7475 
L 362.707 -579.7475 
L 368.369141 -579.7475 
L 374.031283 -579.7475 
L 379.693424 -579.7475 
L 385.355566 -579.7475 
L 391.017707 -579.7475 
L 396.679848 -579.7475 
L 402.34199 -579.7475 
L 408.004131 -579.7475 
L 413.666273 -579.7475 
L 419.328414 -579.7475 
L 424.990556 -579.7475 
L 430.652697 -579.7475 
L 436.314839 -579.7475 
L 441.97698 -579.7475 
L 447.639121 -579.7475 
L 453.301263 -579.7475 
L 458.963404 -579.7475 
L 464.625546 -579.7475 
L 470.287687 -579.7475 
L 475.949829 -579.7475 
L 481.61197 -579.7475 
L 487.274111 -579.7475 
L 492.936253 -579.7475 
L 498.598394 -579.7475 
L 504.260536 -579.7475 
L 509.922677 -579.7475 
L 515.584819 -579.7475 
L 521.24696 -579.7475 
L 526.909102 -579.7475 
L 532.571243 -579.7475 
L 538.233384 -579.7475 
L 543.895526 -579.7475 
L 549.557667 -579.7475 
L 555.219809 -579.7475 
L 560.88195 -579.7475 
L 566.544092 -579.7475 
L 572.206233 -579.7475 
L 577.868375 -579.7475 
L 583.530516 -579.7475 
L 589.192657 -579.7475 
L 594.854799 -579.7475 
L 600.51694 -579.7475 
L 606.179082 -579.7475 
L 611.841223 -579.7475 
L 617.503365 -579.7475 
L 623.165506 -579.7475 
L 628.827648 -579.7475 
L 628.827648 -579.426824 
L 628.827648 -579.426824 
L 623.165506 -579.36391 
L 617.503365 -579.292133 
L 611.841223 -579.210989 
L 606.179082 -579.120083 
L 600.51694 -579.019159 
L 594.854799 -578.908115 
L 589.192657 -578.787017 
L 583.530516 -578.656107 
L 577.868375 -578.5158 
L 572.206233 -578.366673 
L 566.544092 -578.209443 
L 560.88195 -578.044937 
L 555.219809 -577.874053 
L 549.557667 -577.697712 
L 543.895526 -577.516811 
L 538.233384 -577.332165 
L 532.571243 -577.144461 
L 526.909102 -576.954213 
L 521.24696 -576.761722 
L 515.584819 -576.567059 
L 509.922677 -576.370046 
L 504.260536 -576.170272 
L 498.598394 -575.967108 
L 492.936253 -575.759752 
L 487.274111 -575.547279 
L 481.61197 -575.328704 
L 475.949829 -575.103055 
L 470.287687 -574.869447 
L 464.625546 -574.627152 
L 458.963404 -574.375663 
L 453.301263 -574.11475 
L 447.639121 -573.844497 
L 441.97698 -573.565324 
L 436.314839 -573.277992 
L 430.652697 -572.98359 
L 424.990556 -572.683505 
L 419.328414 -572.37938 
L 413.666273 -572.073062 
L 408.004131 -571.766546 
L 402.34199 -571.461913 
L 396.679848 -571.161278 
L 391.017707 -570.866742 
L 385.355566 -570.580345 
L 379.693424 -570.304042 
L 374.031283 -570.039683 
L 368.369141 -569.788999 
L 362.707 -569.553605 
L 357.044858 -569.334999 
L 351.382717 -569.134576 
L 345.720575 -568.95363 
L 340.058434 -568.793362 
L 334.396293 -568.654884 
L 328.734151 -568.539211 
L 323.07201 -568.447262 
L 317.409868 -568.379841 
L 311.747727 -568.33763 
L 306.085585 -568.321166 
L 300.423444 -568.330837 
L 294.761302 -568.366862 
L 289.099161 -568.429293 
L 283.43702 -568.518009 
L 277.774878 -568.632728 
L 272.112737 -568.773013 
L 266.450595 -568.93829 
L 260.788454 -569.127868 
L 255.126312 -569.340951 
L 249.464171 -569.576659 
L 243.802029 -569.834034 
L 238.139888 -570.112046 
L 232.477747 -570.409592 
L 226.815605 -570.725482 
L 221.153464 -571.058429 
L 215.491322 -571.407023 
L 209.829181 -571.769715 
L 204.167039 -572.144792 
L 198.504898 -572.530366 
L 192.842756 -572.924365 
L 187.180615 -573.324532 
L 181.518474 -573.728443 
L 175.856332 -574.133532 
L 170.194191 -574.537127 
L 164.532049 -574.936502 
L 158.869908 -575.328934 
L 153.207766 -575.711764 
L 147.545625 -576.082463 
L 141.883484 -576.438696 
L 136.221342 -576.778381 
L 130.559201 -577.099733 
L 124.897059 -577.401309 
L 119.234918 -577.682032 
L 113.572776 -577.9412 
L 107.910635 -578.178486 
L 102.248493 -578.393927 
L 96.586352 -578.58789 
L 90.924211 -578.761044 
L 85.262069 -578.914312 
L 79.599928 -579.048826 
L 73.937786 -579.165875 
L 68.275645 -579.266859 
z
" style="stroke: #808080; stroke-opacity: 0.8; stroke-width: 0.8"/>
    </defs>
    <g clip-path="url(#p88489f6649)">
     <use xlink:href="#ma4a1330535" x="0" y="713.885" style="fill: #166c9c; fill-opacity: 0.8; stroke: #808080; stroke-opacity: 0.8; stroke-width: 0.8"/>
    </g>
   </g>
   <g id="PolyCollection_5">
    <defs>
     <path id="m4b3d1dcf02" d="M 400.690919 -495.1225 
L 400.690919 -496.154135 
L 402.344903 -496.366079 
L 403.998887 -496.610391 
L 405.652871 -496.889634 
L 407.306855 -497.20615 
L 408.960839 -497.561987 
L 410.614823 -497.95884 
L 412.268807 -498.398005 
L 413.92279 -498.880346 
L 415.576774 -499.406284 
L 417.230758 -499.975803 
L 418.884742 -500.588478 
L 420.538726 -501.24352 
L 422.19271 -501.939836 
L 423.846694 -502.676091 
L 425.500677 -503.450777 
L 427.154661 -504.262268 
L 428.808645 -505.108865 
L 430.462629 -505.988816 
L 432.116613 -506.900308 
L 433.770597 -507.84143 
L 435.424581 -508.810106 
L 437.078564 -509.804008 
L 438.732548 -510.820442 
L 440.386532 -511.856234 
L 442.040516 -512.907624 
L 443.6945 -513.970174 
L 445.348484 -515.038717 
L 447.002468 -516.107347 
L 448.656452 -517.169472 
L 450.310435 -518.217924 
L 451.964419 -519.245129 
L 453.618403 -520.243336 
L 455.272387 -521.204885 
L 456.926371 -522.122501 
L 458.580355 -522.989594 
L 460.234339 -523.800537 
L 461.888322 -524.550902 
L 463.542306 -525.237634 
L 465.19629 -525.859142 
L 466.850274 -526.415293 
L 468.504258 -526.907311 
L 470.158242 -527.33758 
L 471.812226 -527.709363 
L 473.466209 -528.026454 
L 475.120193 -528.292796 
L 476.774177 -528.512085 
L 478.428161 -528.687391 
L 480.082145 -528.820835 
L 481.736129 -528.913345 
L 483.390113 -528.964501 
L 485.044096 -528.9725 
L 486.69808 -528.934239 
L 488.352064 -528.845506 
L 490.006048 -528.701267 
L 491.660032 -528.496047 
L 493.314016 -528.224337 
L 494.968 -527.881045 
L 496.621984 -527.461916 
L 498.275967 -526.963912 
L 499.929951 -526.385523 
L 501.583935 -525.726979 
L 503.237919 -524.990356 
L 504.891903 -524.179566 
L 506.545887 -523.300238 
L 508.199871 -522.359506 
L 509.853854 -521.365707 
L 511.507838 -520.328029 
L 513.161822 -519.256136 
L 514.815806 -518.159781 
L 516.46979 -517.048453 
L 518.123774 -515.93107 
L 519.777758 -514.815732 
L 521.431741 -513.709558 
L 523.085725 -512.618596 
L 524.739709 -511.54781 
L 526.393693 -510.501139 
L 528.047677 -509.481608 
L 529.701661 -508.491478 
L 531.355645 -507.532415 
L 533.009629 -506.605664 
L 534.663612 -505.712212 
L 536.317596 -504.852921 
L 537.97158 -504.028636 
L 539.625564 -503.24024 
L 541.279548 -502.488686 
L 542.933532 -501.774983 
L 544.587516 -501.100155 
L 546.241499 -500.465177 
L 547.895483 -499.870901 
L 549.549467 -499.317976 
L 551.203451 -498.806775 
L 552.857435 -498.337335 
L 554.511419 -497.909309 
L 556.165403 -497.521949 
L 557.819386 -497.174102 
L 559.47337 -496.86423 
L 561.127354 -496.590445 
L 562.781338 -496.350568 
L 564.435322 -496.142186 
L 564.435322 -495.1225 
L 564.435322 -495.1225 
L 562.781338 -495.1225 
L 561.127354 -495.1225 
L 559.47337 -495.1225 
L 557.819386 -495.1225 
L 556.165403 -495.1225 
L 554.511419 -495.1225 
L 552.857435 -495.1225 
L 551.203451 -495.1225 
L 549.549467 -495.1225 
L 547.895483 -495.1225 
L 546.241499 -495.1225 
L 544.587516 -495.1225 
L 542.933532 -495.1225 
L 541.279548 -495.1225 
L 539.625564 -495.1225 
L 537.97158 -495.1225 
L 536.317596 -495.1225 
L 534.663612 -495.1225 
L 533.009629 -495.1225 
L 531.355645 -495.1225 
L 529.701661 -495.1225 
L 528.047677 -495.1225 
L 526.393693 -495.1225 
L 524.739709 -495.1225 
L 523.085725 -495.1225 
L 521.431741 -495.1225 
L 519.777758 -495.1225 
L 518.123774 -495.1225 
L 516.46979 -495.1225 
L 514.815806 -495.1225 
L 513.161822 -495.1225 
L 511.507838 -495.1225 
L 509.853854 -495.1225 
L 508.199871 -495.1225 
L 506.545887 -495.1225 
L 504.891903 -495.1225 
L 503.237919 -495.1225 
L 501.583935 -495.1225 
L 499.929951 -495.1225 
L 498.275967 -495.1225 
L 496.621984 -495.1225 
L 494.968 -495.1225 
L 493.314016 -495.1225 
L 491.660032 -495.1225 
L 490.006048 -495.1225 
L 488.352064 -495.1225 
L 486.69808 -495.1225 
L 485.044096 -495.1225 
L 483.390113 -495.1225 
L 481.736129 -495.1225 
L 480.082145 -495.1225 
L 478.428161 -495.1225 
L 476.774177 -495.1225 
L 475.120193 -495.1225 
L 473.466209 -495.1225 
L 471.812226 -495.1225 
L 470.158242 -495.1225 
L 468.504258 -495.1225 
L 466.850274 -495.1225 
L 465.19629 -495.1225 
L 463.542306 -495.1225 
L 461.888322 -495.1225 
L 460.234339 -495.1225 
L 458.580355 -495.1225 
L 456.926371 -495.1225 
L 455.272387 -495.1225 
L 453.618403 -495.1225 
L 451.964419 -495.1225 
L 450.310435 -495.1225 
L 448.656452 -495.1225 
L 447.002468 -495.1225 
L 445.348484 -495.1225 
L 443.6945 -495.1225 
L 442.040516 -495.1225 
L 440.386532 -495.1225 
L 438.732548 -495.1225 
L 437.078564 -495.1225 
L 435.424581 -495.1225 
L 433.770597 -495.1225 
L 432.116613 -495.1225 
L 430.462629 -495.1225 
L 428.808645 -495.1225 
L 427.154661 -495.1225 
L 425.500677 -495.1225 
L 423.846694 -495.1225 
L 422.19271 -495.1225 
L 420.538726 -495.1225 
L 418.884742 -495.1225 
L 417.230758 -495.1225 
L 415.576774 -495.1225 
L 413.92279 -495.1225 
L 412.268807 -495.1225 
L 410.614823 -495.1225 
L 408.960839 -495.1225 
L 407.306855 -495.1225 
L 405.652871 -495.1225 
L 403.998887 -495.1225 
L 402.344903 -495.1225 
L 400.690919 -495.1225 
z
" style="stroke: #808080; stroke-opacity: 0.8; stroke-width: 0.8"/>
    </defs>
    <g clip-path="url(#p88489f6649)">
     <use xlink:href="#m4b3d1dcf02" x="0" y="713.885" style="fill: #2b8e70; fill-opacity: 0.8; stroke: #808080; stroke-opacity: 0.8; stroke-width: 0.8"/>
    </g>
   </g>
   <g id="PolyCollection_6">
    <defs>
     <path id="me8ff0b9ea4" d="M 258.851147 -494.464761 
L 258.851147 -495.1225 
L 261.595356 -495.1225 
L 264.339565 -495.1225 
L 267.083774 -495.1225 
L 269.827983 -495.1225 
L 272.572192 -495.1225 
L 275.316401 -495.1225 
L 278.06061 -495.1225 
L 280.804819 -495.1225 
L 283.549028 -495.1225 
L 286.293237 -495.1225 
L 289.037446 -495.1225 
L 291.781655 -495.1225 
L 294.525864 -495.1225 
L 297.270073 -495.1225 
L 300.014282 -495.1225 
L 302.758491 -495.1225 
L 305.5027 -495.1225 
L 308.246909 -495.1225 
L 310.991118 -495.1225 
L 313.735327 -495.1225 
L 316.479536 -495.1225 
L 319.223745 -495.1225 
L 321.967954 -495.1225 
L 324.712163 -495.1225 
L 327.456372 -495.1225 
L 330.200581 -495.1225 
L 332.94479 -495.1225 
L 335.688999 -495.1225 
L 338.433209 -495.1225 
L 341.177418 -495.1225 
L 343.921627 -495.1225 
L 346.665836 -495.1225 
L 349.410045 -495.1225 
L 352.154254 -495.1225 
L 354.898463 -495.1225 
L 357.642672 -495.1225 
L 360.386881 -495.1225 
L 363.13109 -495.1225 
L 365.875299 -495.1225 
L 368.619508 -495.1225 
L 371.363717 -495.1225 
L 374.107926 -495.1225 
L 376.852135 -495.1225 
L 379.596344 -495.1225 
L 382.340553 -495.1225 
L 385.084762 -495.1225 
L 387.828971 -495.1225 
L 390.57318 -495.1225 
L 393.317389 -495.1225 
L 396.061598 -495.1225 
L 398.805807 -495.1225 
L 401.550016 -495.1225 
L 404.294225 -495.1225 
L 407.038434 -495.1225 
L 409.782643 -495.1225 
L 412.526852 -495.1225 
L 415.271061 -495.1225 
L 418.01527 -495.1225 
L 420.759479 -495.1225 
L 423.503688 -495.1225 
L 426.247897 -495.1225 
L 428.992106 -495.1225 
L 431.736315 -495.1225 
L 434.480524 -495.1225 
L 437.224733 -495.1225 
L 439.968943 -495.1225 
L 442.713152 -495.1225 
L 445.457361 -495.1225 
L 448.20157 -495.1225 
L 450.945779 -495.1225 
L 453.689988 -495.1225 
L 456.434197 -495.1225 
L 459.178406 -495.1225 
L 461.922615 -495.1225 
L 464.666824 -495.1225 
L 467.411033 -495.1225 
L 470.155242 -495.1225 
L 472.899451 -495.1225 
L 475.64366 -495.1225 
L 478.387869 -495.1225 
L 481.132078 -495.1225 
L 483.876287 -495.1225 
L 486.620496 -495.1225 
L 489.364705 -495.1225 
L 492.108914 -495.1225 
L 494.853123 -495.1225 
L 497.597332 -495.1225 
L 500.341541 -495.1225 
L 503.08575 -495.1225 
L 505.829959 -495.1225 
L 508.574168 -495.1225 
L 511.318377 -495.1225 
L 514.062586 -495.1225 
L 516.806795 -495.1225 
L 519.551004 -495.1225 
L 522.295213 -495.1225 
L 525.039422 -495.1225 
L 527.783631 -495.1225 
L 530.52784 -495.1225 
L 530.52784 -494.143812 
L 530.52784 -494.143812 
L 527.783631 -493.935731 
L 525.039422 -493.694012 
L 522.295213 -493.415619 
L 519.551004 -493.09772 
L 516.806795 -492.737797 
L 514.062586 -492.33375 
L 511.318377 -491.883998 
L 508.574168 -491.387579 
L 505.829959 -490.84423 
L 503.08575 -490.254452 
L 500.341541 -489.619549 
L 497.597332 -488.941653 
L 494.853123 -488.223704 
L 492.108914 -487.469419 
L 489.364705 -486.683227 
L 486.620496 -485.870176 
L 483.876287 -485.035833 
L 481.132078 -484.186155 
L 478.387869 -483.327362 
L 475.64366 -482.465808 
L 472.899451 -481.607846 
L 470.155242 -480.759707 
L 467.411033 -479.927397 
L 464.666824 -479.116598 
L 461.922615 -478.33259 
L 459.178406 -477.58019 
L 456.434197 -476.863699 
L 453.689988 -476.186872 
L 450.945779 -475.552888 
L 448.20157 -474.964337 
L 445.457361 -474.423212 
L 442.713152 -473.930912 
L 439.968943 -473.488256 
L 437.224733 -473.095506 
L 434.480524 -472.752411 
L 431.736315 -472.45826 
L 428.992106 -472.211965 
L 426.247897 -472.012155 
L 423.503688 -471.85729 
L 420.759479 -471.745787 
L 418.01527 -471.676159 
L 415.271061 -471.647141 
L 412.526852 -471.657814 
L 409.782643 -471.707695 
L 407.038434 -471.796804 
L 404.294225 -471.925674 
L 401.550016 -472.095317 
L 398.805807 -472.307141 
L 396.061598 -472.562802 
L 393.317389 -472.864025 
L 390.57318 -473.212378 
L 387.828971 -473.609039 
L 385.084762 -474.054555 
L 382.340553 -474.548617 
L 379.596344 -475.089882 
L 376.852135 -475.675843 
L 374.107926 -476.30277 
L 371.363717 -476.965726 
L 368.619508 -477.658669 
L 365.875299 -478.374625 
L 363.13109 -479.10593 
L 360.386881 -479.844524 
L 357.642672 -480.582281 
L 354.898463 -481.311346 
L 352.154254 -482.024461 
L 349.410045 -482.715264 
L 346.665836 -483.378525 
L 343.921627 -484.010327 
L 341.177418 -484.608157 
L 338.433209 -485.170926 
L 335.688999 -485.698907 
L 332.94479 -486.193593 
L 330.200581 -486.657509 
L 327.456372 -487.093961 
L 324.712163 -487.506777 
L 321.967954 -487.900024 
L 319.223745 -488.277741 
L 316.479536 -488.6437 
L 313.735327 -489.001199 
L 310.991118 -489.352906 
L 308.246909 -489.70076 
L 305.5027 -490.045923 
L 302.758491 -490.388783 
L 300.014282 -490.729011 
L 297.270073 -491.065651 
L 294.525864 -491.39724 
L 291.781655 -491.72195 
L 289.037446 -492.037732 
L 286.293237 -492.342461 
L 283.549028 -492.634072 
L 280.804819 -492.910675 
L 278.06061 -493.170645 
L 275.316401 -493.412695 
L 272.572192 -493.635919 
L 269.827983 -493.839802 
L 267.083774 -494.024223 
L 264.339565 -494.189428 
L 261.595356 -494.33599 
L 258.851147 -494.464761 
z
" style="stroke: #808080; stroke-opacity: 0.8; stroke-width: 0.8"/>
    </defs>
    <g clip-path="url(#p88489f6649)">
     <use xlink:href="#me8ff0b9ea4" x="0" y="713.885" style="fill: #166c9c; fill-opacity: 0.8; stroke: #808080; stroke-opacity: 0.8; stroke-width: 0.8"/>
    </g>
   </g>
   <g id="PolyCollection_7">
    <defs>
     <path id="m5c134cfb4c" d="M 364.729669 -410.4975 
L 364.729669 -411.299092 
L 366.852228 -411.461865 
L 368.974788 -411.6488 
L 371.097347 -411.861533 
L 373.219906 -412.101423 
L 375.342466 -412.369479 
L 377.465025 -412.666293 
L 379.587584 -412.991978 
L 381.710144 -413.346127 
L 383.832703 -413.727785 
L 385.955262 -414.13545 
L 388.077822 -414.567093 
L 390.200381 -415.020211 
L 392.322941 -415.491901 
L 394.4455 -415.978968 
L 396.568059 -416.478046 
L 398.690619 -416.985748 
L 400.813178 -417.498819 
L 402.935737 -418.014298 
L 405.058297 -418.529676 
L 407.180856 -419.043042 
L 409.303415 -419.553207 
L 411.425975 -420.059801 
L 413.548534 -420.563329 
L 415.671094 -421.065188 
L 417.793653 -421.567637 
L 419.916212 -422.073719 
L 422.038772 -422.587128 
L 424.161331 -423.112036 
L 426.28389 -423.652876 
L 428.40645 -424.214095 
L 430.529009 -424.799876 
L 432.651569 -425.413858 
L 434.774128 -426.058854 
L 436.896687 -426.736584 
L 439.019247 -427.447451 
L 441.141806 -428.190349 
L 443.264365 -428.962547 
L 445.386925 -429.759637 
L 447.509484 -430.575555 
L 449.632043 -431.402698 
L 451.754603 -432.232107 
L 453.877162 -433.053728 
L 455.999722 -433.856744 
L 458.122281 -434.629936 
L 460.24484 -435.362085 
L 462.3674 -436.042377 
L 464.489959 -436.660782 
L 466.612518 -437.208407 
L 468.735078 -437.67778 
L 470.857637 -438.063069 
L 472.980197 -438.360208 
L 475.102756 -438.566939 
L 477.225315 -438.682765 
L 479.347875 -438.708821 
L 481.470434 -438.64768 
L 483.592993 -438.503099 
L 485.715553 -438.27974 
L 487.838112 -437.982877 
L 489.960671 -437.618103 
L 492.083231 -437.191075 
L 494.20579 -436.707286 
L 496.32835 -436.171895 
L 498.450909 -435.589613 
L 500.573468 -434.96464 
L 502.696028 -434.300665 
L 504.818587 -433.600911 
L 506.941146 -432.868214 
L 509.063706 -432.105132 
L 511.186265 -431.314075 
L 513.308824 -430.497429 
L 515.431384 -429.657678 
L 517.553943 -428.797508 
L 519.676503 -427.919894 
L 521.799062 -427.028151 
L 523.921621 -426.12596 
L 526.044181 -425.217366 
L 528.16674 -424.306743 
L 530.289299 -423.39874 
L 532.411859 -422.498202 
L 534.534418 -421.610072 
L 536.656978 -420.739294 
L 538.779537 -419.890694 
L 540.902096 -419.068876 
L 543.024656 -418.278116 
L 545.147215 -417.522265 
L 547.269774 -416.804665 
L 549.392334 -416.128086 
L 551.514893 -415.494676 
L 553.637452 -414.905932 
L 555.760012 -414.362692 
L 557.882571 -413.865151 
L 560.005131 -413.412884 
L 562.12769 -413.004898 
L 564.250249 -412.639692 
L 566.372809 -412.315324 
L 568.495368 -412.029493 
L 570.617927 -411.779622 
L 572.740487 -411.562937 
L 574.863046 -411.376547 
L 574.863046 -410.4975 
L 574.863046 -410.4975 
L 572.740487 -410.4975 
L 570.617927 -410.4975 
L 568.495368 -410.4975 
L 566.372809 -410.4975 
L 564.250249 -410.4975 
L 562.12769 -410.4975 
L 560.005131 -410.4975 
L 557.882571 -410.4975 
L 555.760012 -410.4975 
L 553.637452 -410.4975 
L 551.514893 -410.4975 
L 549.392334 -410.4975 
L 547.269774 -410.4975 
L 545.147215 -410.4975 
L 543.024656 -410.4975 
L 540.902096 -410.4975 
L 538.779537 -410.4975 
L 536.656978 -410.4975 
L 534.534418 -410.4975 
L 532.411859 -410.4975 
L 530.289299 -410.4975 
L 528.16674 -410.4975 
L 526.044181 -410.4975 
L 523.921621 -410.4975 
L 521.799062 -410.4975 
L 519.676503 -410.4975 
L 517.553943 -410.4975 
L 515.431384 -410.4975 
L 513.308824 -410.4975 
L 511.186265 -410.4975 
L 509.063706 -410.4975 
L 506.941146 -410.4975 
L 504.818587 -410.4975 
L 502.696028 -410.4975 
L 500.573468 -410.4975 
L 498.450909 -410.4975 
L 496.32835 -410.4975 
L 494.20579 -410.4975 
L 492.083231 -410.4975 
L 489.960671 -410.4975 
L 487.838112 -410.4975 
L 485.715553 -410.4975 
L 483.592993 -410.4975 
L 481.470434 -410.4975 
L 479.347875 -410.4975 
L 477.225315 -410.4975 
L 475.102756 -410.4975 
L 472.980197 -410.4975 
L 470.857637 -410.4975 
L 468.735078 -410.4975 
L 466.612518 -410.4975 
L 464.489959 -410.4975 
L 462.3674 -410.4975 
L 460.24484 -410.4975 
L 458.122281 -410.4975 
L 455.999722 -410.4975 
L 453.877162 -410.4975 
L 451.754603 -410.4975 
L 449.632043 -410.4975 
L 447.509484 -410.4975 
L 445.386925 -410.4975 
L 443.264365 -410.4975 
L 441.141806 -410.4975 
L 439.019247 -410.4975 
L 436.896687 -410.4975 
L 434.774128 -410.4975 
L 432.651569 -410.4975 
L 430.529009 -410.4975 
L 428.40645 -410.4975 
L 426.28389 -410.4975 
L 424.161331 -410.4975 
L 422.038772 -410.4975 
L 419.916212 -410.4975 
L 417.793653 -410.4975 
L 415.671094 -410.4975 
L 413.548534 -410.4975 
L 411.425975 -410.4975 
L 409.303415 -410.4975 
L 407.180856 -410.4975 
L 405.058297 -410.4975 
L 402.935737 -410.4975 
L 400.813178 -410.4975 
L 398.690619 -410.4975 
L 396.568059 -410.4975 
L 394.4455 -410.4975 
L 392.322941 -410.4975 
L 390.200381 -410.4975 
L 388.077822 -410.4975 
L 385.955262 -410.4975 
L 383.832703 -410.4975 
L 381.710144 -410.4975 
L 379.587584 -410.4975 
L 377.465025 -410.4975 
L 375.342466 -410.4975 
L 373.219906 -410.4975 
L 371.097347 -410.4975 
L 368.974788 -410.4975 
L 366.852228 -410.4975 
L 364.729669 -410.4975 
z
" style="stroke: #808080; stroke-opacity: 0.8; stroke-width: 0.8"/>
    </defs>
    <g clip-path="url(#p88489f6649)">
     <use xlink:href="#m5c134cfb4c" x="0" y="713.885" style="fill: #2b8e70; fill-opacity: 0.8; stroke: #808080; stroke-opacity: 0.8; stroke-width: 0.8"/>
    </g>
   </g>
   <g id="PolyCollection_8">
    <defs>
     <path id="mcc1aa9fba9" d="M 241.138961 -409.852186 
L 241.138961 -410.4975 
L 244.613174 -410.4975 
L 248.087387 -410.4975 
L 251.561601 -410.4975 
L 255.035814 -410.4975 
L 258.510027 -410.4975 
L 261.984241 -410.4975 
L 265.458454 -410.4975 
L 268.932667 -410.4975 
L 272.406881 -410.4975 
L 275.881094 -410.4975 
L 279.355307 -410.4975 
L 282.829521 -410.4975 
L 286.303734 -410.4975 
L 289.777947 -410.4975 
L 293.252161 -410.4975 
L 296.726374 -410.4975 
L 300.200587 -410.4975 
L 303.674801 -410.4975 
L 307.149014 -410.4975 
L 310.623227 -410.4975 
L 314.097441 -410.4975 
L 317.571654 -410.4975 
L 321.045867 -410.4975 
L 324.520081 -410.4975 
L 327.994294 -410.4975 
L 331.468507 -410.4975 
L 334.942721 -410.4975 
L 338.416934 -410.4975 
L 341.891147 -410.4975 
L 345.365361 -410.4975 
L 348.839574 -410.4975 
L 352.313787 -410.4975 
L 355.788001 -410.4975 
L 359.262214 -410.4975 
L 362.736427 -410.4975 
L 366.210641 -410.4975 
L 369.684854 -410.4975 
L 373.159067 -410.4975 
L 376.633281 -410.4975 
L 380.107494 -410.4975 
L 383.581707 -410.4975 
L 387.055921 -410.4975 
L 390.530134 -410.4975 
L 394.004347 -410.4975 
L 397.478561 -410.4975 
L 400.952774 -410.4975 
L 404.426987 -410.4975 
L 407.901201 -410.4975 
L 411.375414 -410.4975 
L 414.849627 -410.4975 
L 418.323841 -410.4975 
L 421.798054 -410.4975 
L 425.272267 -410.4975 
L 428.746481 -410.4975 
L 432.220694 -410.4975 
L 435.694907 -410.4975 
L 439.169121 -410.4975 
L 442.643334 -410.4975 
L 446.117547 -410.4975 
L 449.591761 -410.4975 
L 453.065974 -410.4975 
L 456.540187 -410.4975 
L 460.014401 -410.4975 
L 463.488614 -410.4975 
L 466.962827 -410.4975 
L 470.437041 -410.4975 
L 473.911254 -410.4975 
L 477.385467 -410.4975 
L 480.859681 -410.4975 
L 484.333894 -410.4975 
L 487.808107 -410.4975 
L 491.282321 -410.4975 
L 494.756534 -410.4975 
L 498.230747 -410.4975 
L 501.704961 -410.4975 
L 505.179174 -410.4975 
L 508.653387 -410.4975 
L 512.127601 -410.4975 
L 515.601814 -410.4975 
L 519.076027 -410.4975 
L 522.550241 -410.4975 
L 526.024454 -410.4975 
L 529.498667 -410.4975 
L 532.972881 -410.4975 
L 536.447094 -410.4975 
L 539.921307 -410.4975 
L 543.395521 -410.4975 
L 546.869734 -410.4975 
L 550.343947 -410.4975 
L 553.818161 -410.4975 
L 557.292374 -410.4975 
L 560.766587 -410.4975 
L 564.240801 -410.4975 
L 567.715014 -410.4975 
L 571.189227 -410.4975 
L 574.663441 -410.4975 
L 578.137654 -410.4975 
L 581.611867 -410.4975 
L 585.086081 -410.4975 
L 585.086081 -409.940381 
L 585.086081 -409.940381 
L 581.611867 -409.828886 
L 578.137654 -409.700749 
L 574.663441 -409.554697 
L 571.189227 -409.389583 
L 567.715014 -409.204436 
L 564.240801 -408.998497 
L 560.766587 -408.77126 
L 557.292374 -408.522497 
L 553.818161 -408.25228 
L 550.343947 -407.960992 
L 546.869734 -407.649326 
L 543.395521 -407.318261 
L 539.921307 -406.969041 
L 536.447094 -406.603124 
L 532.972881 -406.222137 
L 529.498667 -405.827804 
L 526.024454 -405.421886 
L 522.550241 -405.00611 
L 519.076027 -404.582104 
L 515.601814 -404.15134 
L 512.127601 -403.715091 
L 508.653387 -403.274401 
L 505.179174 -402.830078 
L 501.704961 -402.382706 
L 498.230747 -401.932678 
L 494.756534 -401.480248 
L 491.282321 -401.025607 
L 487.808107 -400.56896 
L 484.333894 -400.110626 
L 480.859681 -399.651123 
L 477.385467 -399.191258 
L 473.911254 -398.732195 
L 470.437041 -398.275511 
L 466.962827 -397.823216 
L 463.488614 -397.377749 
L 460.014401 -396.941936 
L 456.540187 -396.518921 
L 453.065974 -396.112061 
L 449.591761 -395.724798 
L 446.117547 -395.360514 
L 442.643334 -395.022376 
L 439.169121 -394.713183 
L 435.694907 -394.435229 
L 432.220694 -394.190181 
L 428.746481 -393.978998 
L 425.272267 -393.801888 
L 421.798054 -393.658305 
L 418.323841 -393.546998 
L 414.849627 -393.466103 
L 411.375414 -393.413276 
L 407.901201 -393.385856 
L 404.426987 -393.381053 
L 400.952774 -393.396143 
L 397.478561 -393.428658 
L 394.004347 -393.476568 
L 390.530134 -393.538422 
L 387.055921 -393.613461 
L 383.581707 -393.701682 
L 380.107494 -393.803852 
L 376.633281 -393.921468 
L 373.159067 -394.056676 
L 369.684854 -394.212139 
L 366.210641 -394.390878 
L 362.736427 -394.596084 
L 359.262214 -394.830918 
L 355.788001 -395.098312 
L 352.313787 -395.400778 
L 348.839574 -395.740237 
L 345.365361 -396.11788 
L 341.891147 -396.534064 
L 338.416934 -396.988244 
L 334.942721 -397.478952 
L 331.468507 -398.003812 
L 327.994294 -398.559597 
L 324.520081 -399.142317 
L 321.045867 -399.747333 
L 317.571654 -400.369498 
L 314.097441 -401.003309 
L 310.623227 -401.643058 
L 307.149014 -402.282999 
L 303.674801 -402.917494 
L 300.200587 -403.541152 
L 296.726374 -404.148956 
L 293.252161 -404.736363 
L 289.777947 -405.299391 
L 286.303734 -405.834673 
L 282.829521 -406.339495 
L 279.355307 -406.811814 
L 275.881094 -407.250246 
L 272.406881 -407.654043 
L 268.932667 -408.023056 
L 265.458454 -408.357673 
L 261.984241 -408.658766 
L 258.510027 -408.92761 
L 255.035814 -409.16582 
L 251.561601 -409.375267 
L 248.087387 -409.558013 
L 244.613174 -409.71624 
L 241.138961 -409.852186 
z
" style="stroke: #808080; stroke-opacity: 0.8; stroke-width: 0.8"/>
    </defs>
    <g clip-path="url(#p88489f6649)">
     <use xlink:href="#mcc1aa9fba9" x="0" y="713.885" style="fill: #166c9c; fill-opacity: 0.8; stroke: #808080; stroke-opacity: 0.8; stroke-width: 0.8"/>
    </g>
   </g>
   <g id="PolyCollection_9">
    <defs>
     <path id="m5416be5fd9" d="M 225.150961 -325.8725 
L 225.150961 -326.352399 
L 228.948164 -326.434784 
L 232.745367 -326.527102 
L 236.54257 -326.629718 
L 240.339774 -326.74285 
L 244.136977 -326.866542 
L 247.93418 -327.000642 
L 251.731383 -327.14478 
L 255.528587 -327.298356 
L 259.32579 -327.46053 
L 263.122993 -327.630225 
L 266.920196 -327.806137 
L 270.717399 -327.986751 
L 274.514603 -328.170376 
L 278.311806 -328.355177 
L 282.109009 -328.53923 
L 285.906212 -328.720574 
L 289.703416 -328.897276 
L 293.500619 -329.06749 
L 297.297822 -329.229531 
L 301.095025 -329.381938 
L 304.892229 -329.523531 
L 308.689432 -329.65347 
L 312.486635 -329.771293 
L 316.283838 -329.876952 
L 320.081041 -329.970827 
L 323.878245 -330.053731 
L 327.675448 -330.126898 
L 331.472651 -330.191956 
L 335.269854 -330.25089 
L 339.067058 -330.305987 
L 342.864261 -330.359782 
L 346.661464 -330.414992 
L 350.458667 -330.474446 
L 354.255871 -330.541024 
L 358.053074 -330.617591 
L 361.850277 -330.706939 
L 365.64748 -330.811745 
L 369.444684 -330.934526 
L 373.241887 -331.077613 
L 377.03909 -331.243128 
L 380.836293 -331.432976 
L 384.633496 -331.648832 
L 388.4307 -331.892143 
L 392.227903 -332.164119 
L 396.025106 -332.465731 
L 399.822309 -332.797694 
L 403.619513 -333.160446 
L 407.416716 -333.554121 
L 411.213919 -333.978502 
L 415.011122 -334.432973 
L 418.808326 -334.916456 
L 422.605529 -335.427346 
L 426.402732 -335.963444 
L 430.199935 -336.521888 
L 433.997138 -337.099101 
L 437.794342 -337.690744 
L 441.591545 -338.291699 
L 445.388748 -338.896067 
L 449.185951 -339.497203 
L 452.983155 -340.087783 
L 456.780358 -340.6599 
L 460.577561 -341.205202 
L 464.374764 -341.71506 
L 468.171968 -342.180757 
L 471.969171 -342.593712 
L 475.766374 -342.945706 
L 479.563577 -343.229125 
L 483.360781 -343.437187 
L 487.157984 -343.564171 
L 490.955187 -343.605604 
L 494.75239 -343.558434 
L 498.549593 -343.421148 
L 502.346797 -343.19385 
L 506.144 -342.878288 
L 509.941203 -342.47783 
L 513.738406 -341.997384 
L 517.53561 -341.443272 
L 521.332813 -340.823061 
L 525.130016 -340.145357 
L 528.927219 -339.419566 
L 532.724423 -338.655647 
L 536.521626 -337.863845 
L 540.318829 -337.054433 
L 544.116032 -336.237466 
L 547.913235 -335.422544 
L 551.710439 -334.618621 
L 555.507642 -333.833825 
L 559.304845 -333.075334 
L 563.102048 -332.349279 
L 566.899252 -331.660687 
L 570.696455 -331.013469 
L 574.493658 -330.410434 
L 578.290861 -329.853339 
L 582.088065 -329.342963 
L 585.885268 -328.879201 
L 589.682471 -328.461172 
L 593.479674 -328.087341 
L 597.276877 -327.755635 
L 601.074081 -327.46357 
L 601.074081 -325.8725 
L 601.074081 -325.8725 
L 597.276877 -325.8725 
L 593.479674 -325.8725 
L 589.682471 -325.8725 
L 585.885268 -325.8725 
L 582.088065 -325.8725 
L 578.290861 -325.8725 
L 574.493658 -325.8725 
L 570.696455 -325.8725 
L 566.899252 -325.8725 
L 563.102048 -325.8725 
L 559.304845 -325.8725 
L 555.507642 -325.8725 
L 551.710439 -325.8725 
L 547.913235 -325.8725 
L 544.116032 -325.8725 
L 540.318829 -325.8725 
L 536.521626 -325.8725 
L 532.724423 -325.8725 
L 528.927219 -325.8725 
L 525.130016 -325.8725 
L 521.332813 -325.8725 
L 517.53561 -325.8725 
L 513.738406 -325.8725 
L 509.941203 -325.8725 
L 506.144 -325.8725 
L 502.346797 -325.8725 
L 498.549593 -325.8725 
L 494.75239 -325.8725 
L 490.955187 -325.8725 
L 487.157984 -325.8725 
L 483.360781 -325.8725 
L 479.563577 -325.8725 
L 475.766374 -325.8725 
L 471.969171 -325.8725 
L 468.171968 -325.8725 
L 464.374764 -325.8725 
L 460.577561 -325.8725 
L 456.780358 -325.8725 
L 452.983155 -325.8725 
L 449.185951 -325.8725 
L 445.388748 -325.8725 
L 441.591545 -325.8725 
L 437.794342 -325.8725 
L 433.997138 -325.8725 
L 430.199935 -325.8725 
L 426.402732 -325.8725 
L 422.605529 -325.8725 
L 418.808326 -325.8725 
L 415.011122 -325.8725 
L 411.213919 -325.8725 
L 407.416716 -325.8725 
L 403.619513 -325.8725 
L 399.822309 -325.8725 
L 396.025106 -325.8725 
L 392.227903 -325.8725 
L 388.4307 -325.8725 
L 384.633496 -325.8725 
L 380.836293 -325.8725 
L 377.03909 -325.8725 
L 373.241887 -325.8725 
L 369.444684 -325.8725 
L 365.64748 -325.8725 
L 361.850277 -325.8725 
L 358.053074 -325.8725 
L 354.255871 -325.8725 
L 350.458667 -325.8725 
L 346.661464 -325.8725 
L 342.864261 -325.8725 
L 339.067058 -325.8725 
L 335.269854 -325.8725 
L 331.472651 -325.8725 
L 327.675448 -325.8725 
L 323.878245 -325.8725 
L 320.081041 -325.8725 
L 316.283838 -325.8725 
L 312.486635 -325.8725 
L 308.689432 -325.8725 
L 304.892229 -325.8725 
L 301.095025 -325.8725 
L 297.297822 -325.8725 
L 293.500619 -325.8725 
L 289.703416 -325.8725 
L 285.906212 -325.8725 
L 282.109009 -325.8725 
L 278.311806 -325.8725 
L 274.514603 -325.8725 
L 270.717399 -325.8725 
L 266.920196 -325.8725 
L 263.122993 -325.8725 
L 259.32579 -325.8725 
L 255.528587 -325.8725 
L 251.731383 -325.8725 
L 247.93418 -325.8725 
L 244.136977 -325.8725 
L 240.339774 -325.8725 
L 236.54257 -325.8725 
L 232.745367 -325.8725 
L 228.948164 -325.8725 
L 225.150961 -325.8725 
z
" style="stroke: #808080; stroke-opacity: 0.8; stroke-width: 0.8"/>
    </defs>
    <g clip-path="url(#p88489f6649)">
     <use xlink:href="#m5416be5fd9" x="0" y="713.885" style="fill: #2b8e70; fill-opacity: 0.8; stroke: #808080; stroke-opacity: 0.8; stroke-width: 0.8"/>
    </g>
   </g>
   <g id="PolyCollection_10">
    <defs>
     <path id="m9a9c672305" d="M 301.876657 -324.78047 
L 301.876657 -325.8725 
L 303.939769 -325.8725 
L 306.00288 -325.8725 
L 308.065991 -325.8725 
L 310.129102 -325.8725 
L 312.192214 -325.8725 
L 314.255325 -325.8725 
L 316.318436 -325.8725 
L 318.381547 -325.8725 
L 320.444659 -325.8725 
L 322.50777 -325.8725 
L 324.570881 -325.8725 
L 326.633992 -325.8725 
L 328.697104 -325.8725 
L 330.760215 -325.8725 
L 332.823326 -325.8725 
L 334.886437 -325.8725 
L 336.949549 -325.8725 
L 339.01266 -325.8725 
L 341.075771 -325.8725 
L 343.138882 -325.8725 
L 345.201994 -325.8725 
L 347.265105 -325.8725 
L 349.328216 -325.8725 
L 351.391327 -325.8725 
L 353.454439 -325.8725 
L 355.51755 -325.8725 
L 357.580661 -325.8725 
L 359.643772 -325.8725 
L 361.706884 -325.8725 
L 363.769995 -325.8725 
L 365.833106 -325.8725 
L 367.896217 -325.8725 
L 369.959329 -325.8725 
L 372.02244 -325.8725 
L 374.085551 -325.8725 
L 376.148662 -325.8725 
L 378.211774 -325.8725 
L 380.274885 -325.8725 
L 382.337996 -325.8725 
L 384.401107 -325.8725 
L 386.464219 -325.8725 
L 388.52733 -325.8725 
L 390.590441 -325.8725 
L 392.653552 -325.8725 
L 394.716664 -325.8725 
L 396.779775 -325.8725 
L 398.842886 -325.8725 
L 400.905997 -325.8725 
L 402.969109 -325.8725 
L 405.03222 -325.8725 
L 407.095331 -325.8725 
L 409.158442 -325.8725 
L 411.221554 -325.8725 
L 413.284665 -325.8725 
L 415.347776 -325.8725 
L 417.410887 -325.8725 
L 419.473999 -325.8725 
L 421.53711 -325.8725 
L 423.600221 -325.8725 
L 425.663332 -325.8725 
L 427.726444 -325.8725 
L 429.789555 -325.8725 
L 431.852666 -325.8725 
L 433.915777 -325.8725 
L 435.978889 -325.8725 
L 438.042 -325.8725 
L 440.105111 -325.8725 
L 442.168222 -325.8725 
L 444.231334 -325.8725 
L 446.294445 -325.8725 
L 448.357556 -325.8725 
L 450.420667 -325.8725 
L 452.483779 -325.8725 
L 454.54689 -325.8725 
L 456.610001 -325.8725 
L 458.673112 -325.8725 
L 460.736224 -325.8725 
L 462.799335 -325.8725 
L 464.862446 -325.8725 
L 466.925557 -325.8725 
L 468.988669 -325.8725 
L 471.05178 -325.8725 
L 473.114891 -325.8725 
L 475.178002 -325.8725 
L 477.241114 -325.8725 
L 479.304225 -325.8725 
L 481.367336 -325.8725 
L 483.430447 -325.8725 
L 485.493559 -325.8725 
L 487.55667 -325.8725 
L 489.619781 -325.8725 
L 491.682893 -325.8725 
L 493.746004 -325.8725 
L 495.809115 -325.8725 
L 497.872226 -325.8725 
L 499.935338 -325.8725 
L 501.998449 -325.8725 
L 504.06156 -325.8725 
L 506.124671 -325.8725 
L 506.124671 -324.721162 
L 506.124671 -324.721162 
L 504.06156 -324.497092 
L 501.998449 -324.24032 
L 499.935338 -323.948289 
L 497.872226 -323.618623 
L 495.809115 -323.249198 
L 493.746004 -322.838189 
L 491.682893 -322.384128 
L 489.619781 -321.885939 
L 487.55667 -321.342961 
L 485.493559 -320.75496 
L 483.430447 -320.122116 
L 481.367336 -319.445003 
L 479.304225 -318.724548 
L 477.241114 -317.961981 
L 475.178002 -317.158774 
L 473.114891 -316.316587 
L 471.05178 -315.437208 
L 468.988669 -314.522513 
L 466.925557 -313.574432 
L 464.862446 -312.594948 
L 462.799335 -311.586113 
L 460.736224 -310.550099 
L 458.673112 -309.489267 
L 456.610001 -308.406273 
L 454.54689 -307.304182 
L 452.483779 -306.1866 
L 450.420667 -305.057805 
L 448.357556 -303.922874 
L 446.294445 -302.787783 
L 444.231334 -301.659479 
L 442.168222 -300.545907 
L 440.105111 -299.455988 
L 438.042 -298.399535 
L 435.978889 -297.387116 
L 433.915777 -296.429849 
L 431.852666 -295.539152 
L 429.789555 -294.72644 
L 427.726444 -294.002793 
L 425.663332 -293.378603 
L 423.600221 -292.863224 
L 421.53711 -292.464626 
L 419.473999 -292.189099 
L 417.410887 -292.040988 
L 415.347776 -292.0225 
L 413.284665 -292.133582 
L 411.221554 -292.371875 
L 409.158442 -292.732752 
L 407.095331 -293.209439 
L 405.03222 -293.7932 
L 402.969109 -294.4736 
L 400.905997 -295.238811 
L 398.842886 -296.075969 
L 396.779775 -296.971541 
L 394.716664 -297.911716 
L 392.653552 -298.882778 
L 390.590441 -299.871471 
L 388.52733 -300.865323 
L 386.464219 -301.852937 
L 384.401107 -302.824226 
L 382.337996 -303.770602 
L 380.274885 -304.685106 
L 378.211774 -305.562474 
L 376.148662 -306.399159 
L 374.085551 -307.193288 
L 372.02244 -307.944572 
L 369.959329 -308.654178 
L 367.896217 -309.324547 
L 365.833106 -309.959198 
L 363.769995 -310.562489 
L 361.706884 -311.139378 
L 359.643772 -311.695163 
L 357.580661 -312.235234 
L 355.51755 -312.764827 
L 353.454439 -313.288798 
L 351.391327 -313.811432 
L 349.328216 -314.336272 
L 347.265105 -314.866001 
L 345.201994 -315.402357 
L 343.138882 -315.946097 
L 341.075771 -316.497009 
L 339.01266 -317.053961 
L 336.949549 -317.614994 
L 334.886437 -318.177441 
L 332.823326 -318.738076 
L 330.760215 -319.29328 
L 328.697104 -319.839208 
L 326.633992 -320.371965 
L 324.570881 -320.887764 
L 322.50777 -321.383072 
L 320.444659 -321.854735 
L 318.381547 -322.300073 
L 316.318436 -322.716954 
L 314.255325 -323.103829 
L 312.192214 -323.45975 
L 310.129102 -323.784355 
L 308.065991 -324.077832 
L 306.00288 -324.34087 
L 303.939769 -324.574589 
L 301.876657 -324.78047 
z
" style="stroke: #808080; stroke-opacity: 0.8; stroke-width: 0.8"/>
    </defs>
    <g clip-path="url(#p88489f6649)">
     <use xlink:href="#m9a9c672305" x="0" y="713.885" style="fill: #166c9c; fill-opacity: 0.8; stroke: #808080; stroke-opacity: 0.8; stroke-width: 0.8"/>
    </g>
   </g>
   <g id="PolyCollection_11">
    <defs>
     <path id="mb8b1a8c6d8" d="M 225.150961 -241.2475 
L 225.150961 -241.727399 
L 228.948164 -241.809784 
L 232.745367 -241.902102 
L 236.54257 -242.004718 
L 240.339774 -242.11785 
L 244.136977 -242.241542 
L 247.93418 -242.375642 
L 251.731383 -242.51978 
L 255.528587 -242.673356 
L 259.32579 -242.83553 
L 263.122993 -243.005225 
L 266.920196 -243.181137 
L 270.717399 -243.361751 
L 274.514603 -243.545376 
L 278.311806 -243.730177 
L 282.109009 -243.91423 
L 285.906212 -244.095574 
L 289.703416 -244.272276 
L 293.500619 -244.44249 
L 297.297822 -244.604531 
L 301.095025 -244.756938 
L 304.892229 -244.898531 
L 308.689432 -245.02847 
L 312.486635 -245.146293 
L 316.283838 -245.251952 
L 320.081041 -245.345827 
L 323.878245 -245.428731 
L 327.675448 -245.501898 
L 331.472651 -245.566956 
L 335.269854 -245.62589 
L 339.067058 -245.680987 
L 342.864261 -245.734782 
L 346.661464 -245.789992 
L 350.458667 -245.849446 
L 354.255871 -245.916024 
L 358.053074 -245.992591 
L 361.850277 -246.081939 
L 365.64748 -246.186745 
L 369.444684 -246.309526 
L 373.241887 -246.452613 
L 377.03909 -246.618128 
L 380.836293 -246.807976 
L 384.633496 -247.023832 
L 388.4307 -247.267143 
L 392.227903 -247.539119 
L 396.025106 -247.840731 
L 399.822309 -248.172694 
L 403.619513 -248.535446 
L 407.416716 -248.929121 
L 411.213919 -249.353502 
L 415.011122 -249.807973 
L 418.808326 -250.291456 
L 422.605529 -250.802346 
L 426.402732 -251.338444 
L 430.199935 -251.896888 
L 433.997138 -252.474101 
L 437.794342 -253.065744 
L 441.591545 -253.666699 
L 445.388748 -254.271067 
L 449.185951 -254.872203 
L 452.983155 -255.462783 
L 456.780358 -256.0349 
L 460.577561 -256.580202 
L 464.374764 -257.09006 
L 468.171968 -257.555757 
L 471.969171 -257.968712 
L 475.766374 -258.320706 
L 479.563577 -258.604125 
L 483.360781 -258.812187 
L 487.157984 -258.939171 
L 490.955187 -258.980604 
L 494.75239 -258.933434 
L 498.549593 -258.796148 
L 502.346797 -258.56885 
L 506.144 -258.253288 
L 509.941203 -257.85283 
L 513.738406 -257.372384 
L 517.53561 -256.818272 
L 521.332813 -256.198061 
L 525.130016 -255.520357 
L 528.927219 -254.794566 
L 532.724423 -254.030647 
L 536.521626 -253.238845 
L 540.318829 -252.429433 
L 544.116032 -251.612466 
L 547.913235 -250.797544 
L 551.710439 -249.993621 
L 555.507642 -249.208825 
L 559.304845 -248.450334 
L 563.102048 -247.724279 
L 566.899252 -247.035687 
L 570.696455 -246.388469 
L 574.493658 -245.785434 
L 578.290861 -245.228339 
L 582.088065 -244.717963 
L 585.885268 -244.254201 
L 589.682471 -243.836172 
L 593.479674 -243.462341 
L 597.276877 -243.130635 
L 601.074081 -242.83857 
L 601.074081 -241.2475 
L 601.074081 -241.2475 
L 597.276877 -241.2475 
L 593.479674 -241.2475 
L 589.682471 -241.2475 
L 585.885268 -241.2475 
L 582.088065 -241.2475 
L 578.290861 -241.2475 
L 574.493658 -241.2475 
L 570.696455 -241.2475 
L 566.899252 -241.2475 
L 563.102048 -241.2475 
L 559.304845 -241.2475 
L 555.507642 -241.2475 
L 551.710439 -241.2475 
L 547.913235 -241.2475 
L 544.116032 -241.2475 
L 540.318829 -241.2475 
L 536.521626 -241.2475 
L 532.724423 -241.2475 
L 528.927219 -241.2475 
L 525.130016 -241.2475 
L 521.332813 -241.2475 
L 517.53561 -241.2475 
L 513.738406 -241.2475 
L 509.941203 -241.2475 
L 506.144 -241.2475 
L 502.346797 -241.2475 
L 498.549593 -241.2475 
L 494.75239 -241.2475 
L 490.955187 -241.2475 
L 487.157984 -241.2475 
L 483.360781 -241.2475 
L 479.563577 -241.2475 
L 475.766374 -241.2475 
L 471.969171 -241.2475 
L 468.171968 -241.2475 
L 464.374764 -241.2475 
L 460.577561 -241.2475 
L 456.780358 -241.2475 
L 452.983155 -241.2475 
L 449.185951 -241.2475 
L 445.388748 -241.2475 
L 441.591545 -241.2475 
L 437.794342 -241.2475 
L 433.997138 -241.2475 
L 430.199935 -241.2475 
L 426.402732 -241.2475 
L 422.605529 -241.2475 
L 418.808326 -241.2475 
L 415.011122 -241.2475 
L 411.213919 -241.2475 
L 407.416716 -241.2475 
L 403.619513 -241.2475 
L 399.822309 -241.2475 
L 396.025106 -241.2475 
L 392.227903 -241.2475 
L 388.4307 -241.2475 
L 384.633496 -241.2475 
L 380.836293 -241.2475 
L 377.03909 -241.2475 
L 373.241887 -241.2475 
L 369.444684 -241.2475 
L 365.64748 -241.2475 
L 361.850277 -241.2475 
L 358.053074 -241.2475 
L 354.255871 -241.2475 
L 350.458667 -241.2475 
L 346.661464 -241.2475 
L 342.864261 -241.2475 
L 339.067058 -241.2475 
L 335.269854 -241.2475 
L 331.472651 -241.2475 
L 327.675448 -241.2475 
L 323.878245 -241.2475 
L 320.081041 -241.2475 
L 316.283838 -241.2475 
L 312.486635 -241.2475 
L 308.689432 -241.2475 
L 304.892229 -241.2475 
L 301.095025 -241.2475 
L 297.297822 -241.2475 
L 293.500619 -241.2475 
L 289.703416 -241.2475 
L 285.906212 -241.2475 
L 282.109009 -241.2475 
L 278.311806 -241.2475 
L 274.514603 -241.2475 
L 270.717399 -241.2475 
L 266.920196 -241.2475 
L 263.122993 -241.2475 
L 259.32579 -241.2475 
L 255.528587 -241.2475 
L 251.731383 -241.2475 
L 247.93418 -241.2475 
L 244.136977 -241.2475 
L 240.339774 -241.2475 
L 236.54257 -241.2475 
L 232.745367 -241.2475 
L 228.948164 -241.2475 
L 225.150961 -241.2475 
z
" style="stroke: #808080; stroke-opacity: 0.8; stroke-width: 0.8"/>
    </defs>
    <g clip-path="url(#p88489f6649)">
     <use xlink:href="#mb8b1a8c6d8" x="0" y="713.885" style="fill: #2b8e70; fill-opacity: 0.8; stroke: #808080; stroke-opacity: 0.8; stroke-width: 0.8"/>
    </g>
   </g>
   <g id="PolyCollection_12">
    <defs>
     <path id="m20cb306f8d" d="M 286.409094 -240.074402 
L 286.409094 -241.2475 
L 289.31694 -241.2475 
L 292.224785 -241.2475 
L 295.132631 -241.2475 
L 298.040477 -241.2475 
L 300.948323 -241.2475 
L 303.856169 -241.2475 
L 306.764015 -241.2475 
L 309.671861 -241.2475 
L 312.579706 -241.2475 
L 315.487552 -241.2475 
L 318.395398 -241.2475 
L 321.303244 -241.2475 
L 324.21109 -241.2475 
L 327.118936 -241.2475 
L 330.026782 -241.2475 
L 332.934627 -241.2475 
L 335.842473 -241.2475 
L 338.750319 -241.2475 
L 341.658165 -241.2475 
L 344.566011 -241.2475 
L 347.473857 -241.2475 
L 350.381703 -241.2475 
L 353.289548 -241.2475 
L 356.197394 -241.2475 
L 359.10524 -241.2475 
L 362.013086 -241.2475 
L 364.920932 -241.2475 
L 367.828778 -241.2475 
L 370.736624 -241.2475 
L 373.644469 -241.2475 
L 376.552315 -241.2475 
L 379.460161 -241.2475 
L 382.368007 -241.2475 
L 385.275853 -241.2475 
L 388.183699 -241.2475 
L 391.091545 -241.2475 
L 393.99939 -241.2475 
L 396.907236 -241.2475 
L 399.815082 -241.2475 
L 402.722928 -241.2475 
L 405.630774 -241.2475 
L 408.53862 -241.2475 
L 411.446465 -241.2475 
L 414.354311 -241.2475 
L 417.262157 -241.2475 
L 420.170003 -241.2475 
L 423.077849 -241.2475 
L 425.985695 -241.2475 
L 428.893541 -241.2475 
L 431.801386 -241.2475 
L 434.709232 -241.2475 
L 437.617078 -241.2475 
L 440.524924 -241.2475 
L 443.43277 -241.2475 
L 446.340616 -241.2475 
L 449.248462 -241.2475 
L 452.156307 -241.2475 
L 455.064153 -241.2475 
L 457.971999 -241.2475 
L 460.879845 -241.2475 
L 463.787691 -241.2475 
L 466.695537 -241.2475 
L 469.603383 -241.2475 
L 472.511228 -241.2475 
L 475.419074 -241.2475 
L 478.32692 -241.2475 
L 481.234766 -241.2475 
L 484.142612 -241.2475 
L 487.050458 -241.2475 
L 489.958304 -241.2475 
L 492.866149 -241.2475 
L 495.773995 -241.2475 
L 498.681841 -241.2475 
L 501.589687 -241.2475 
L 504.497533 -241.2475 
L 507.405379 -241.2475 
L 510.313225 -241.2475 
L 513.22107 -241.2475 
L 516.128916 -241.2475 
L 519.036762 -241.2475 
L 521.944608 -241.2475 
L 524.852454 -241.2475 
L 527.7603 -241.2475 
L 530.668146 -241.2475 
L 533.575991 -241.2475 
L 536.483837 -241.2475 
L 539.391683 -241.2475 
L 542.299529 -241.2475 
L 545.207375 -241.2475 
L 548.115221 -241.2475 
L 551.023067 -241.2475 
L 553.930912 -241.2475 
L 556.838758 -241.2475 
L 559.746604 -241.2475 
L 562.65445 -241.2475 
L 565.562296 -241.2475 
L 568.470142 -241.2475 
L 571.377987 -241.2475 
L 574.285833 -241.2475 
L 574.285833 -240.494296 
L 574.285833 -240.494296 
L 571.377987 -240.35576 
L 568.470142 -240.199541 
L 565.562296 -240.025044 
L 562.65445 -239.832005 
L 559.746604 -239.62055 
L 556.838758 -239.391254 
L 553.930912 -239.145178 
L 551.023067 -238.883903 
L 548.115221 -238.609536 
L 545.207375 -238.324702 
L 542.299529 -238.032507 
L 539.391683 -237.736477 
L 536.483837 -237.440466 
L 533.575991 -237.148548 
L 530.668146 -236.864874 
L 527.7603 -236.593514 
L 524.852454 -236.338288 
L 521.944608 -236.102579 
L 519.036762 -235.889153 
L 516.128916 -235.699982 
L 513.22107 -235.536082 
L 510.313225 -235.397374 
L 507.405379 -235.282577 
L 504.497533 -235.189137 
L 501.589687 -235.113202 
L 498.681841 -235.049644 
L 495.773995 -234.992126 
L 492.866149 -234.933229 
L 489.958304 -234.864622 
L 487.050458 -234.777277 
L 484.142612 -234.661727 
L 481.234766 -234.508361 
L 478.32692 -234.307737 
L 475.419074 -234.050911 
L 472.511228 -233.729777 
L 469.603383 -233.337394 
L 466.695537 -232.86829 
L 463.787691 -232.318743 
L 460.879845 -231.687011 
L 457.971999 -230.973511 
L 455.064153 -230.180931 
L 452.156307 -229.31428 
L 449.248462 -228.380847 
L 446.340616 -227.390095 
L 443.43277 -226.353468 
L 440.524924 -225.28413 
L 437.617078 -224.19663 
L 434.709232 -223.106525 
L 431.801386 -222.029944 
L 428.893541 -220.983143 
L 425.985695 -219.982048 
L 423.077849 -219.041805 
L 420.170003 -218.17637 
L 417.262157 -217.398145 
L 414.354311 -216.717677 
L 411.446465 -216.143439 
L 408.53862 -215.681685 
L 405.630774 -215.336409 
L 402.722928 -215.109374 
L 399.815082 -215.000231 
L 396.907236 -215.00671 
L 393.99939 -215.124853 
L 391.091545 -215.349307 
L 388.183699 -215.673615 
L 385.275853 -216.090528 
L 382.368007 -216.592296 
L 379.460161 -217.17093 
L 376.552315 -217.818423 
L 373.644469 -218.526928 
L 370.736624 -219.288879 
L 367.828778 -220.097068 
L 364.920932 -220.944664 
L 362.013086 -221.825208 
L 359.10524 -222.732562 
L 356.197394 -223.660856 
L 353.289548 -224.604411 
L 350.381703 -225.557679 
L 347.473857 -226.515187 
L 344.566011 -227.471504 
L 341.658165 -228.421233 
L 338.750319 -229.359022 
L 335.842473 -230.279609 
L 332.934627 -231.177882 
L 330.026782 -232.048958 
L 327.118936 -232.888275 
L 324.21109 -233.691677 
L 321.303244 -234.455512 
L 318.395398 -235.176702 
L 315.487552 -235.852809 
L 312.579706 -236.482077 
L 309.671861 -237.063453 
L 306.764015 -237.596581 
L 303.856169 -238.08178 
L 300.948323 -238.519997 
L 298.040477 -238.912741 
L 295.132631 -239.262009 
L 292.224785 -239.5702 
L 289.31694 -239.840022 
L 286.409094 -240.074402 
z
" style="stroke: #808080; stroke-opacity: 0.8; stroke-width: 0.8"/>
    </defs>
    <g clip-path="url(#p88489f6649)">
     <use xlink:href="#m20cb306f8d" x="0" y="713.885" style="fill: #166c9c; fill-opacity: 0.8; stroke: #808080; stroke-opacity: 0.8; stroke-width: 0.8"/>
    </g>
   </g>
   <g id="PolyCollection_13">
    <defs>
     <path id="m229ea59c06" d="M 329.835327 -156.6225 
L 329.835327 -157.335166 
L 332.120828 -157.471924 
L 334.406329 -157.628118 
L 336.69183 -157.805097 
L 338.977331 -158.004047 
L 341.262832 -158.225929 
L 343.548333 -158.471441 
L 345.833834 -158.74097 
L 348.119335 -159.034553 
L 350.404836 -159.351853 
L 352.690337 -159.692137 
L 354.975838 -160.054274 
L 357.261339 -160.436745 
L 359.54684 -160.837664 
L 361.832341 -161.254819 
L 364.117842 -161.685721 
L 366.403343 -162.127671 
L 368.688844 -162.577834 
L 370.974345 -163.033316 
L 373.259846 -163.491251 
L 375.545347 -163.94889 
L 377.830848 -164.403677 
L 380.116349 -164.853331 
L 382.40185 -165.295911 
L 384.687351 -165.729876 
L 386.972852 -166.154122 
L 389.258353 -166.568016 
L 391.543854 -166.971409 
L 393.829355 -167.364632 
L 396.114856 -167.748478 
L 398.400357 -168.124173 
L 400.685858 -168.493331 
L 402.971359 -168.857897 
L 405.25686 -169.220078 
L 407.542361 -169.582268 
L 409.827862 -169.946964 
L 412.113363 -170.31668 
L 414.398864 -170.69385 
L 416.684365 -171.080736 
L 418.969866 -171.47934 
L 421.255367 -171.891309 
L 423.540868 -172.317858 
L 425.826369 -172.759699 
L 428.11187 -173.216977 
L 430.397371 -173.689232 
L 432.682873 -174.175367 
L 434.968374 -174.673646 
L 437.253875 -175.181703 
L 439.539376 -175.696573 
L 441.824877 -176.214745 
L 444.110378 -176.732227 
L 446.395879 -177.244623 
L 448.68138 -177.747219 
L 450.966881 -178.235075 
L 453.252382 -178.703114 
L 455.537883 -179.146205 
L 457.823384 -179.559237 
L 460.108885 -179.937188 
L 462.394386 -180.275171 
L 464.679887 -180.568477 
L 466.965388 -180.812603 
L 469.250889 -181.003277 
L 471.53639 -181.136476 
L 473.821891 -181.20845 
L 476.107392 -181.215749 
L 478.392893 -181.155264 
L 480.678394 -181.024276 
L 482.963895 -180.820531 
L 485.249396 -180.542314 
L 487.534897 -180.188547 
L 489.820398 -179.758889 
L 492.105899 -179.253834 
L 494.3914 -178.674811 
L 496.676901 -178.024254 
L 498.962402 -177.305666 
L 501.247903 -176.523639 
L 503.533404 -175.683843 
L 505.818905 -174.792974 
L 508.104406 -173.85866 
L 510.389907 -172.88933 
L 512.675408 -171.894039 
L 514.960909 -170.882271 
L 517.24641 -169.863717 
L 519.531911 -168.848041 
L 521.817412 -167.844647 
L 524.102913 -166.862454 
L 526.388414 -165.90969 
L 528.673915 -164.993718 
L 530.959416 -164.12089 
L 533.244917 -163.296451 
L 535.530418 -162.524472 
L 537.815919 -161.80784 
L 540.10142 -161.148271 
L 542.386921 -160.546376 
L 544.672422 -160.001748 
L 546.957923 -159.513071 
L 549.243424 -159.078255 
L 551.528925 -158.694574 
L 553.814426 -158.358808 
L 556.099927 -158.067387 
L 556.099927 -156.6225 
L 556.099927 -156.6225 
L 553.814426 -156.6225 
L 551.528925 -156.6225 
L 549.243424 -156.6225 
L 546.957923 -156.6225 
L 544.672422 -156.6225 
L 542.386921 -156.6225 
L 540.10142 -156.6225 
L 537.815919 -156.6225 
L 535.530418 -156.6225 
L 533.244917 -156.6225 
L 530.959416 -156.6225 
L 528.673915 -156.6225 
L 526.388414 -156.6225 
L 524.102913 -156.6225 
L 521.817412 -156.6225 
L 519.531911 -156.6225 
L 517.24641 -156.6225 
L 514.960909 -156.6225 
L 512.675408 -156.6225 
L 510.389907 -156.6225 
L 508.104406 -156.6225 
L 505.818905 -156.6225 
L 503.533404 -156.6225 
L 501.247903 -156.6225 
L 498.962402 -156.6225 
L 496.676901 -156.6225 
L 494.3914 -156.6225 
L 492.105899 -156.6225 
L 489.820398 -156.6225 
L 487.534897 -156.6225 
L 485.249396 -156.6225 
L 482.963895 -156.6225 
L 480.678394 -156.6225 
L 478.392893 -156.6225 
L 476.107392 -156.6225 
L 473.821891 -156.6225 
L 471.53639 -156.6225 
L 469.250889 -156.6225 
L 466.965388 -156.6225 
L 464.679887 -156.6225 
L 462.394386 -156.6225 
L 460.108885 -156.6225 
L 457.823384 -156.6225 
L 455.537883 -156.6225 
L 453.252382 -156.6225 
L 450.966881 -156.6225 
L 448.68138 -156.6225 
L 446.395879 -156.6225 
L 444.110378 -156.6225 
L 441.824877 -156.6225 
L 439.539376 -156.6225 
L 437.253875 -156.6225 
L 434.968374 -156.6225 
L 432.682873 -156.6225 
L 430.397371 -156.6225 
L 428.11187 -156.6225 
L 425.826369 -156.6225 
L 423.540868 -156.6225 
L 421.255367 -156.6225 
L 418.969866 -156.6225 
L 416.684365 -156.6225 
L 414.398864 -156.6225 
L 412.113363 -156.6225 
L 409.827862 -156.6225 
L 407.542361 -156.6225 
L 405.25686 -156.6225 
L 402.971359 -156.6225 
L 400.685858 -156.6225 
L 398.400357 -156.6225 
L 396.114856 -156.6225 
L 393.829355 -156.6225 
L 391.543854 -156.6225 
L 389.258353 -156.6225 
L 386.972852 -156.6225 
L 384.687351 -156.6225 
L 382.40185 -156.6225 
L 380.116349 -156.6225 
L 377.830848 -156.6225 
L 375.545347 -156.6225 
L 373.259846 -156.6225 
L 370.974345 -156.6225 
L 368.688844 -156.6225 
L 366.403343 -156.6225 
L 364.117842 -156.6225 
L 361.832341 -156.6225 
L 359.54684 -156.6225 
L 357.261339 -156.6225 
L 354.975838 -156.6225 
L 352.690337 -156.6225 
L 350.404836 -156.6225 
L 348.119335 -156.6225 
L 345.833834 -156.6225 
L 343.548333 -156.6225 
L 341.262832 -156.6225 
L 338.977331 -156.6225 
L 336.69183 -156.6225 
L 334.406329 -156.6225 
L 332.120828 -156.6225 
L 329.835327 -156.6225 
z
" style="stroke: #808080; stroke-opacity: 0.8; stroke-width: 0.8"/>
    </defs>
    <g clip-path="url(#p88489f6649)">
     <use xlink:href="#m229ea59c06" x="0" y="713.885" style="fill: #2b8e70; fill-opacity: 0.8; stroke: #808080; stroke-opacity: 0.8; stroke-width: 0.8"/>
    </g>
   </g>
   <g id="PolyCollection_14">
    <defs>
     <path id="ma28ad66bca" d="M 228.021654 -155.89516 
L 228.021654 -156.6225 
L 231.665076 -156.6225 
L 235.308498 -156.6225 
L 238.95192 -156.6225 
L 242.595342 -156.6225 
L 246.238764 -156.6225 
L 249.882186 -156.6225 
L 253.525608 -156.6225 
L 257.16903 -156.6225 
L 260.812452 -156.6225 
L 264.455874 -156.6225 
L 268.099296 -156.6225 
L 271.742718 -156.6225 
L 275.38614 -156.6225 
L 279.029562 -156.6225 
L 282.672984 -156.6225 
L 286.316406 -156.6225 
L 289.959828 -156.6225 
L 293.60325 -156.6225 
L 297.246672 -156.6225 
L 300.890094 -156.6225 
L 304.533517 -156.6225 
L 308.176939 -156.6225 
L 311.820361 -156.6225 
L 315.463783 -156.6225 
L 319.107205 -156.6225 
L 322.750627 -156.6225 
L 326.394049 -156.6225 
L 330.037471 -156.6225 
L 333.680893 -156.6225 
L 337.324315 -156.6225 
L 340.967737 -156.6225 
L 344.611159 -156.6225 
L 348.254581 -156.6225 
L 351.898003 -156.6225 
L 355.541425 -156.6225 
L 359.184847 -156.6225 
L 362.828269 -156.6225 
L 366.471691 -156.6225 
L 370.115113 -156.6225 
L 373.758535 -156.6225 
L 377.401957 -156.6225 
L 381.045379 -156.6225 
L 384.688801 -156.6225 
L 388.332223 -156.6225 
L 391.975645 -156.6225 
L 395.619067 -156.6225 
L 399.262489 -156.6225 
L 402.905912 -156.6225 
L 406.549334 -156.6225 
L 410.192756 -156.6225 
L 413.836178 -156.6225 
L 417.4796 -156.6225 
L 421.123022 -156.6225 
L 424.766444 -156.6225 
L 428.409866 -156.6225 
L 432.053288 -156.6225 
L 435.69671 -156.6225 
L 439.340132 -156.6225 
L 442.983554 -156.6225 
L 446.626976 -156.6225 
L 450.270398 -156.6225 
L 453.91382 -156.6225 
L 457.557242 -156.6225 
L 461.200664 -156.6225 
L 464.844086 -156.6225 
L 468.487508 -156.6225 
L 472.13093 -156.6225 
L 475.774352 -156.6225 
L 479.417774 -156.6225 
L 483.061196 -156.6225 
L 486.704618 -156.6225 
L 490.34804 -156.6225 
L 493.991462 -156.6225 
L 497.634884 -156.6225 
L 501.278306 -156.6225 
L 504.921729 -156.6225 
L 508.565151 -156.6225 
L 512.208573 -156.6225 
L 515.851995 -156.6225 
L 519.495417 -156.6225 
L 523.138839 -156.6225 
L 526.782261 -156.6225 
L 530.425683 -156.6225 
L 534.069105 -156.6225 
L 537.712527 -156.6225 
L 541.355949 -156.6225 
L 544.999371 -156.6225 
L 548.642793 -156.6225 
L 552.286215 -156.6225 
L 555.929637 -156.6225 
L 559.573059 -156.6225 
L 563.216481 -156.6225 
L 566.859903 -156.6225 
L 570.503325 -156.6225 
L 574.146747 -156.6225 
L 577.790169 -156.6225 
L 581.433591 -156.6225 
L 585.077013 -156.6225 
L 588.720435 -156.6225 
L 588.720435 -155.916571 
L 588.720435 -155.916571 
L 585.077013 -155.773248 
L 581.433591 -155.607286 
L 577.790169 -155.416503 
L 574.146747 -155.198781 
L 570.503325 -154.952114 
L 566.859903 -154.674679 
L 563.216481 -154.364892 
L 559.573059 -154.021477 
L 555.929637 -153.643527 
L 552.286215 -153.230562 
L 548.642793 -152.78258 
L 544.999371 -152.300099 
L 541.355949 -151.784186 
L 537.712527 -151.236479 
L 534.069105 -150.659185 
L 530.425683 -150.055072 
L 526.782261 -149.427444 
L 523.138839 -148.780102 
L 519.495417 -148.117288 
L 515.851995 -147.44363 
L 512.208573 -146.764068 
L 508.565151 -146.083778 
L 504.921729 -145.408096 
L 501.278306 -144.742437 
L 497.634884 -144.09222 
L 493.991462 -143.462789 
L 490.34804 -142.859353 
L 486.704618 -142.286914 
L 483.061196 -141.750211 
L 479.417774 -141.253672 
L 475.774352 -140.801357 
L 472.13093 -140.39692 
L 468.487508 -140.043564 
L 464.844086 -139.743998 
L 461.200664 -139.500403 
L 457.557242 -139.314388 
L 453.91382 -139.186956 
L 450.270398 -139.118472 
L 446.626976 -139.10863 
L 442.983554 -139.156433 
L 439.340132 -139.260176 
L 435.69671 -139.417445 
L 432.053288 -139.625126 
L 428.409866 -139.879433 
L 424.766444 -140.175947 
L 421.123022 -140.509682 
L 417.4796 -140.875163 
L 413.836178 -141.266521 
L 410.192756 -141.677611 
L 406.549334 -142.102138 
L 402.905912 -142.533791 
L 399.262489 -142.966397 
L 395.619067 -143.394057 
L 391.975645 -143.811303 
L 388.332223 -144.213226 
L 384.688801 -144.595608 
L 381.045379 -144.95503 
L 377.401957 -145.288958 
L 373.758535 -145.595806 
L 370.115113 -145.874975 
L 366.471691 -146.126852 
L 362.828269 -146.352785 
L 359.184847 -146.555024 
L 355.541425 -146.736629 
L 351.898003 -146.901357 
L 348.254581 -147.053514 
L 344.611159 -147.197797 
L 340.967737 -147.339115 
L 337.324315 -147.482407 
L 333.680893 -147.632458 
L 330.037471 -147.793724 
L 326.394049 -147.970167 
L 322.750627 -148.165115 
L 319.107205 -148.381148 
L 315.463783 -148.620016 
L 311.820361 -148.882588 
L 308.176939 -149.16884 
L 304.533517 -149.477876 
L 300.890094 -149.807987 
L 297.246672 -150.156734 
L 293.60325 -150.521058 
L 289.959828 -150.897415 
L 286.316406 -151.281908 
L 282.672984 -151.670446 
L 279.029562 -152.058882 
L 275.38614 -152.443155 
L 271.742718 -152.819415 
L 268.099296 -153.184132 
L 264.455874 -153.534179 
L 260.812452 -153.866905 
L 257.16903 -154.180167 
L 253.525608 -154.472357 
L 249.882186 -154.742392 
L 246.238764 -154.989698 
L 242.595342 -155.214171 
L 238.95192 -155.416129 
L 235.308498 -155.596253 
L 231.665076 -155.755524 
L 228.021654 -155.89516 
z
" style="stroke: #808080; stroke-opacity: 0.8; stroke-width: 0.8"/>
    </defs>
    <g clip-path="url(#p88489f6649)">
     <use xlink:href="#ma28ad66bca" x="0" y="713.885" style="fill: #166c9c; fill-opacity: 0.8; stroke: #808080; stroke-opacity: 0.8; stroke-width: 0.8"/>
    </g>
   </g>
   <g id="PolyCollection_15">
    <defs>
     <path id="mf95c17c360" d="M 324.991038 -71.9975 
L 324.991038 -72.665923 
L 327.450574 -72.793387 
L 329.91011 -72.939014 
L 332.369645 -73.104132 
L 334.829181 -73.28993 
L 337.288717 -73.497418 
L 339.748252 -73.727378 
L 342.207788 -73.980323 
L 344.667324 -74.256461 
L 347.12686 -74.555662 
L 349.586395 -74.877432 
L 352.045931 -75.220904 
L 354.505467 -75.584833 
L 356.965003 -75.967605 
L 359.424538 -76.367259 
L 361.884074 -76.781523 
L 364.34361 -77.207852 
L 366.803146 -77.643491 
L 369.262681 -78.08553 
L 371.722217 -78.530976 
L 374.181753 -78.976823 
L 376.641289 -79.420127 
L 379.100824 -79.858076 
L 381.56036 -80.288055 
L 384.019896 -80.707715 
L 386.479432 -81.11502 
L 388.938967 -81.5083 
L 391.398503 -81.886282 
L 393.858039 -82.248122 
L 396.317575 -82.593419 
L 398.77711 -82.922225 
L 401.236646 -83.235039 
L 403.696182 -83.532801 
L 406.155718 -83.816868 
L 408.615253 -84.088989 
L 411.074789 -84.35127 
L 413.534325 -84.60613 
L 415.993861 -84.856253 
L 418.453396 -85.104535 
L 420.912932 -85.354016 
L 423.372468 -85.607817 
L 425.832004 -85.869065 
L 428.291539 -86.140815 
L 430.751075 -86.425969 
L 433.210611 -86.727192 
L 435.670146 -87.046823 
L 438.129682 -87.386789 
L 440.589218 -87.748524 
L 443.048754 -88.132881 
L 445.508289 -88.540059 
L 447.967825 -88.969532 
L 450.427361 -89.419985 
L 452.886897 -89.889271 
L 455.346432 -90.37437 
L 457.805968 -90.871372 
L 460.265504 -91.375479 
L 462.72504 -91.881023 
L 465.184575 -92.381518 
L 467.644111 -92.869725 
L 470.103647 -93.337759 
L 472.563183 -93.77721 
L 475.022718 -94.179307 
L 477.482254 -94.535093 
L 479.94179 -94.835636 
L 482.401326 -95.07225 
L 484.860861 -95.236736 
L 487.320397 -95.321624 
L 489.779933 -95.320411 
L 492.239469 -95.227792 
L 494.699004 -95.039858 
L 497.15854 -94.754276 
L 499.618076 -94.370415 
L 502.077612 -93.889429 
L 504.537147 -93.314285 
L 506.996683 -92.649736 
L 509.456219 -91.90223 
L 511.915755 -91.079764 
L 514.37529 -90.191691 
L 516.834826 -89.248479 
L 519.294362 -88.261431 
L 521.753897 -87.242395 
L 524.213433 -86.203444 
L 526.672969 -85.156576 
L 529.132505 -84.113412 
L 531.59204 -83.084926 
L 534.051576 -82.081212 
L 536.511112 -81.111283 
L 538.970648 -80.182923 
L 541.430183 -79.302587 
L 543.889719 -78.475354 
L 546.349255 -77.704916 
L 548.808791 -76.993627 
L 551.268326 -76.342573 
L 553.727862 -75.751689 
L 556.187398 -75.219884 
L 558.646934 -74.745194 
L 561.106469 -74.324939 
L 563.566005 -73.95588 
L 566.025541 -73.634372 
L 568.485077 -73.356511 
L 568.485077 -71.9975 
L 568.485077 -71.9975 
L 566.025541 -71.9975 
L 563.566005 -71.9975 
L 561.106469 -71.9975 
L 558.646934 -71.9975 
L 556.187398 -71.9975 
L 553.727862 -71.9975 
L 551.268326 -71.9975 
L 548.808791 -71.9975 
L 546.349255 -71.9975 
L 543.889719 -71.9975 
L 541.430183 -71.9975 
L 538.970648 -71.9975 
L 536.511112 -71.9975 
L 534.051576 -71.9975 
L 531.59204 -71.9975 
L 529.132505 -71.9975 
L 526.672969 -71.9975 
L 524.213433 -71.9975 
L 521.753897 -71.9975 
L 519.294362 -71.9975 
L 516.834826 -71.9975 
L 514.37529 -71.9975 
L 511.915755 -71.9975 
L 509.456219 -71.9975 
L 506.996683 -71.9975 
L 504.537147 -71.9975 
L 502.077612 -71.9975 
L 499.618076 -71.9975 
L 497.15854 -71.9975 
L 494.699004 -71.9975 
L 492.239469 -71.9975 
L 489.779933 -71.9975 
L 487.320397 -71.9975 
L 484.860861 -71.9975 
L 482.401326 -71.9975 
L 479.94179 -71.9975 
L 477.482254 -71.9975 
L 475.022718 -71.9975 
L 472.563183 -71.9975 
L 470.103647 -71.9975 
L 467.644111 -71.9975 
L 465.184575 -71.9975 
L 462.72504 -71.9975 
L 460.265504 -71.9975 
L 457.805968 -71.9975 
L 455.346432 -71.9975 
L 452.886897 -71.9975 
L 450.427361 -71.9975 
L 447.967825 -71.9975 
L 445.508289 -71.9975 
L 443.048754 -71.9975 
L 440.589218 -71.9975 
L 438.129682 -71.9975 
L 435.670146 -71.9975 
L 433.210611 -71.9975 
L 430.751075 -71.9975 
L 428.291539 -71.9975 
L 425.832004 -71.9975 
L 423.372468 -71.9975 
L 420.912932 -71.9975 
L 418.453396 -71.9975 
L 415.993861 -71.9975 
L 413.534325 -71.9975 
L 411.074789 -71.9975 
L 408.615253 -71.9975 
L 406.155718 -71.9975 
L 403.696182 -71.9975 
L 401.236646 -71.9975 
L 398.77711 -71.9975 
L 396.317575 -71.9975 
L 393.858039 -71.9975 
L 391.398503 -71.9975 
L 388.938967 -71.9975 
L 386.479432 -71.9975 
L 384.019896 -71.9975 
L 381.56036 -71.9975 
L 379.100824 -71.9975 
L 376.641289 -71.9975 
L 374.181753 -71.9975 
L 371.722217 -71.9975 
L 369.262681 -71.9975 
L 366.803146 -71.9975 
L 364.34361 -71.9975 
L 361.884074 -71.9975 
L 359.424538 -71.9975 
L 356.965003 -71.9975 
L 354.505467 -71.9975 
L 352.045931 -71.9975 
L 349.586395 -71.9975 
L 347.12686 -71.9975 
L 344.667324 -71.9975 
L 342.207788 -71.9975 
L 339.748252 -71.9975 
L 337.288717 -71.9975 
L 334.829181 -71.9975 
L 332.369645 -71.9975 
L 329.91011 -71.9975 
L 327.450574 -71.9975 
L 324.991038 -71.9975 
z
" style="stroke: #808080; stroke-opacity: 0.8; stroke-width: 0.8"/>
    </defs>
    <g clip-path="url(#p88489f6649)">
     <use xlink:href="#mf95c17c360" x="0" y="713.885" style="fill: #2b8e70; fill-opacity: 0.8; stroke: #808080; stroke-opacity: 0.8; stroke-width: 0.8"/>
    </g>
   </g>
   <g id="PolyCollection_16">
    <defs>
     <path id="mc8fb647676" d="M 221.406154 -71.184621 
L 221.406154 -71.9975 
L 225.183223 -71.9975 
L 228.960291 -71.9975 
L 232.73736 -71.9975 
L 236.514428 -71.9975 
L 240.291497 -71.9975 
L 244.068565 -71.9975 
L 247.845634 -71.9975 
L 251.622702 -71.9975 
L 255.399771 -71.9975 
L 259.176839 -71.9975 
L 262.953908 -71.9975 
L 266.730976 -71.9975 
L 270.508045 -71.9975 
L 274.285113 -71.9975 
L 278.062182 -71.9975 
L 281.83925 -71.9975 
L 285.616319 -71.9975 
L 289.393387 -71.9975 
L 293.170456 -71.9975 
L 296.947524 -71.9975 
L 300.724593 -71.9975 
L 304.501661 -71.9975 
L 308.27873 -71.9975 
L 312.055798 -71.9975 
L 315.832866 -71.9975 
L 319.609935 -71.9975 
L 323.387003 -71.9975 
L 327.164072 -71.9975 
L 330.94114 -71.9975 
L 334.718209 -71.9975 
L 338.495277 -71.9975 
L 342.272346 -71.9975 
L 346.049414 -71.9975 
L 349.826483 -71.9975 
L 353.603551 -71.9975 
L 357.38062 -71.9975 
L 361.157688 -71.9975 
L 364.934757 -71.9975 
L 368.711825 -71.9975 
L 372.488894 -71.9975 
L 376.265962 -71.9975 
L 380.043031 -71.9975 
L 383.820099 -71.9975 
L 387.597168 -71.9975 
L 391.374236 -71.9975 
L 395.151305 -71.9975 
L 398.928373 -71.9975 
L 402.705442 -71.9975 
L 406.48251 -71.9975 
L 410.259579 -71.9975 
L 414.036647 -71.9975 
L 417.813716 -71.9975 
L 421.590784 -71.9975 
L 425.367853 -71.9975 
L 429.144921 -71.9975 
L 432.92199 -71.9975 
L 436.699058 -71.9975 
L 440.476127 -71.9975 
L 444.253195 -71.9975 
L 448.030264 -71.9975 
L 451.807332 -71.9975 
L 455.584401 -71.9975 
L 459.361469 -71.9975 
L 463.138538 -71.9975 
L 466.915606 -71.9975 
L 470.692675 -71.9975 
L 474.469743 -71.9975 
L 478.246812 -71.9975 
L 482.02388 -71.9975 
L 485.800949 -71.9975 
L 489.578017 -71.9975 
L 493.355086 -71.9975 
L 497.132154 -71.9975 
L 500.909223 -71.9975 
L 504.686291 -71.9975 
L 508.46336 -71.9975 
L 512.240428 -71.9975 
L 516.017497 -71.9975 
L 519.794565 -71.9975 
L 523.571634 -71.9975 
L 527.348702 -71.9975 
L 531.125771 -71.9975 
L 534.902839 -71.9975 
L 538.679908 -71.9975 
L 542.456976 -71.9975 
L 546.234045 -71.9975 
L 550.011113 -71.9975 
L 553.788182 -71.9975 
L 557.56525 -71.9975 
L 561.342318 -71.9975 
L 565.119387 -71.9975 
L 568.896455 -71.9975 
L 572.673524 -71.9975 
L 576.450592 -71.9975 
L 580.227661 -71.9975 
L 584.004729 -71.9975 
L 587.781798 -71.9975 
L 591.558866 -71.9975 
L 595.335935 -71.9975 
L 595.335935 -71.314804 
L 595.335935 -71.314804 
L 591.558866 -71.181494 
L 587.781798 -71.027916 
L 584.004729 -70.852203 
L 580.227661 -70.652542 
L 576.450592 -70.427232 
L 572.673524 -70.174733 
L 568.896455 -69.893722 
L 565.119387 -69.583154 
L 561.342318 -69.24232 
L 557.56525 -68.870897 
L 553.788182 -68.469002 
L 550.011113 -68.037235 
L 546.234045 -67.576713 
L 542.456976 -67.089095 
L 538.679908 -66.57659 
L 534.902839 -66.04196 
L 531.125771 -65.488499 
L 527.348702 -64.920005 
L 523.571634 -64.340731 
L 519.794565 -63.755329 
L 516.017497 -63.168773 
L 512.240428 -62.586278 
L 508.46336 -62.013206 
L 504.686291 -61.454966 
L 500.909223 -60.91691 
L 497.132154 -60.404226 
L 493.355086 -59.921832 
L 489.578017 -59.474278 
L 485.800949 -59.065644 
L 482.02388 -58.699457 
L 478.246812 -58.378613 
L 474.469743 -58.105309 
L 470.692675 -57.880998 
L 466.915606 -57.706347 
L 463.138538 -57.581219 
L 459.361469 -57.504672 
L 455.584401 -57.474969 
L 451.807332 -57.489614 
L 448.030264 -57.545397 
L 444.253195 -57.63846 
L 440.476127 -57.764378 
L 436.699058 -57.918254 
L 432.92199 -58.094828 
L 429.144921 -58.288591 
L 425.367853 -58.493918 
L 421.590784 -58.705196 
L 417.813716 -58.916961 
L 414.036647 -59.124034 
L 410.259579 -59.321648 
L 406.48251 -59.505575 
L 402.705442 -59.672235 
L 398.928373 -59.818794 
L 395.151305 -59.943247 
L 391.374236 -60.04447 
L 387.597168 -60.122265 
L 383.820099 -60.177361 
L 380.043031 -60.211409 
L 376.265962 -60.226933 
L 372.488894 -60.227262 
L 368.711825 -60.216442 
L 364.934757 -60.199113 
L 361.157688 -60.180378 
L 357.38062 -60.165646 
L 353.603551 -60.16047 
L 349.826483 -60.170375 
L 346.049414 -60.200685 
L 342.272346 -60.256356 
L 338.495277 -60.341821 
L 334.718209 -60.460845 
L 330.94114 -60.61641 
L 327.164072 -60.810619 
L 323.387003 -61.044632 
L 319.609935 -61.318632 
L 315.832866 -61.631824 
L 312.055798 -61.982468 
L 308.27873 -62.367937 
L 304.501661 -62.784811 
L 300.724593 -63.228982 
L 296.947524 -63.695794 
L 293.170456 -64.180182 
L 289.393387 -64.676824 
L 285.616319 -65.180295 
L 281.83925 -65.685218 
L 278.062182 -66.186396 
L 274.285113 -66.678945 
L 270.508045 -67.158392 
L 266.730976 -67.620766 
L 262.953908 -68.062662 
L 259.176839 -68.481274 
L 255.399771 -68.874424 
L 251.622702 -69.240549 
L 247.845634 -69.578689 
L 244.068565 -69.88844 
L 240.291497 -70.169912 
L 236.514428 -70.423664 
L 232.73736 -70.650637 
L 228.960291 -70.85209 
L 225.183223 -71.029525 
L 221.406154 -71.184621 
z
" style="stroke: #808080; stroke-opacity: 0.8; stroke-width: 0.8"/>
    </defs>
    <g clip-path="url(#p88489f6649)">
     <use xlink:href="#mc8fb647676" x="0" y="713.885" style="fill: #166c9c; fill-opacity: 0.8; stroke: #808080; stroke-opacity: 0.8; stroke-width: 0.8"/>
    </g>
   </g>
   <g id="patch_3">
    <path d="M 428.4 49.5125 
L 428.4 49.5125 
L 428.4 49.5125 
L 428.4 49.5125 
z
" clip-path="url(#p88489f6649)" style="fill: #2b8e70; opacity: 0.8; stroke: #808080; stroke-width: 0.8; stroke-linejoin: miter"/>
   </g>
   <g id="patch_4">
    <path d="M 428.4 49.5125 
L 428.4 49.5125 
L 428.4 49.5125 
L 428.4 49.5125 
z
" clip-path="url(#p88489f6649)" style="fill: #166c9c; opacity: 0.8; stroke: #808080; stroke-width: 0.8; stroke-linejoin: miter"/>
   </g>
   <g id="matplotlib.axis_1">
    <g id="xtick_1">
     <g id="line2d_1">
      <defs>
       <path id="ma2849e4a6f" d="M 0 0 
L 0 3.5 
" style="stroke: #000000; stroke-width: 0.8"/>
      </defs>
      <g>
       <use xlink:href="#ma2849e4a6f" x="122.072727" y="684.2" style="stroke: #000000; stroke-width: 0.8"/>
      </g>
     </g>
     <g id="text_1">
      <!-- 4 -->
      <g transform="translate(110.278977 703.3575) scale(0.16 -0.16)">
       <defs>
        <path id="DejaVuSans-2212" d="M 678 2272 
L 4684 2272 
L 4684 1741 
L 678 1741 
L 678 2272 
z
" transform="scale(0.015625)"/>
        <path id="DejaVuSans-34" d="M 2419 4116 
L 825 1625 
L 2419 1625 
L 2419 4116 
z
M 2253 4666 
L 3047 4666 
L 3047 1625 
L 3713 1625 
L 3713 1100 
L 3047 1100 
L 3047 0 
L 2419 0 
L 2419 1100 
L 313 1100 
L 313 1709 
L 2253 4666 
z
" transform="scale(0.015625)"/>
       </defs>
       <use xlink:href="#DejaVuSans-2212"/>
       <use xlink:href="#DejaVuSans-34" x="83.789062"/>
      </g>
     </g>
    </g>
    <g id="xtick_2">
     <g id="line2d_2">
      <g>
       <use xlink:href="#ma2849e4a6f" x="275.236364" y="684.2" style="stroke: #000000; stroke-width: 0.8"/>
      </g>
     </g>
     <g id="text_2">
      <!-- 2 -->
      <g transform="translate(263.442614 703.3575) scale(0.16 -0.16)">
       <defs>
        <path id="DejaVuSans-32" d="M 1228 531 
L 3431 531 
L 3431 0 
L 469 0 
L 469 531 
Q 828 903 1448 1529 
Q 2069 2156 2228 2338 
Q 2531 2678 2651 2914 
Q 2772 3150 2772 3378 
Q 2772 3750 2511 3984 
Q 2250 4219 1831 4219 
Q 1534 4219 1204 4116 
Q 875 4013 500 3803 
L 500 4441 
Q 881 4594 1212 4672 
Q 1544 4750 1819 4750 
Q 2544 4750 2975 4387 
Q 3406 4025 3406 3419 
Q 3406 3131 3298 2873 
Q 3191 2616 2906 2266 
Q 2828 2175 2409 1742 
Q 1991 1309 1228 531 
z
" transform="scale(0.015625)"/>
       </defs>
       <use xlink:href="#DejaVuSans-2212"/>
       <use xlink:href="#DejaVuSans-32" x="83.789062"/>
      </g>
     </g>
    </g>
    <g id="xtick_3">
     <g id="line2d_3">
      <g>
       <use xlink:href="#ma2849e4a6f" x="428.4" y="684.2" style="stroke: #000000; stroke-width: 0.8"/>
      </g>
     </g>
     <g id="text_3">
      <!-- 0 -->
      <g transform="translate(423.31 703.3575) scale(0.16 -0.16)">
       <defs>
        <path id="DejaVuSans-30" d="M 2034 4250 
Q 1547 4250 1301 3770 
Q 1056 3291 1056 2328 
Q 1056 1369 1301 889 
Q 1547 409 2034 409 
Q 2525 409 2770 889 
Q 3016 1369 3016 2328 
Q 3016 3291 2770 3770 
Q 2525 4250 2034 4250 
z
M 2034 4750 
Q 2819 4750 3233 4129 
Q 3647 3509 3647 2328 
Q 3647 1150 3233 529 
Q 2819 -91 2034 -91 
Q 1250 -91 836 529 
Q 422 1150 422 2328 
Q 422 3509 836 4129 
Q 1250 4750 2034 4750 
z
" transform="scale(0.015625)"/>
       </defs>
       <use xlink:href="#DejaVuSans-30"/>
      </g>
     </g>
    </g>
    <g id="xtick_4">
     <g id="line2d_4">
      <g>
       <use xlink:href="#ma2849e4a6f" x="581.563636" y="684.2" style="stroke: #000000; stroke-width: 0.8"/>
      </g>
     </g>
     <g id="text_4">
      <!-- 2 -->
      <g transform="translate(576.473636 703.3575) scale(0.16 -0.16)">
       <use xlink:href="#DejaVuSans-32"/>
      </g>
     </g>
    </g>
    <g id="xtick_5">
     <g id="line2d_5">
      <g>
       <use xlink:href="#ma2849e4a6f" x="734.727273" y="684.2" style="stroke: #000000; stroke-width: 0.8"/>
      </g>
     </g>
     <g id="text_5">
      <!-- 4 -->
      <g transform="translate(729.637273 703.3575) scale(0.16 -0.16)">
       <use xlink:href="#DejaVuSans-34"/>
      </g>
     </g>
    </g>
   </g>
   <g id="matplotlib.axis_2"/>
   <g id="legend_1">
    <g id="patch_5">
     <path d="M 636.87375 628.835938 
L 690.87375 628.835938 
L 690.87375 616.235937 
L 636.87375 616.235937 
z
" style="fill: #2b8e70; opacity: 0.8; stroke: #808080; stroke-width: 0.8; stroke-linejoin: miter"/>
    </g>
    <g id="text_6">
     <!-- Graph + LLM -->
     <g transform="translate(708.87375 628.835938) scale(0.18 -0.18)">
      <defs>
       <path id="DejaVuSans-47" d="M 3809 666 
L 3809 1919 
L 2778 1919 
L 2778 2438 
L 4434 2438 
L 4434 434 
Q 4069 175 3628 42 
Q 3188 -91 2688 -91 
Q 1594 -91 976 548 
Q 359 1188 359 2328 
Q 359 3472 976 4111 
Q 1594 4750 2688 4750 
Q 3144 4750 3555 4637 
Q 3966 4525 4313 4306 
L 4313 3634 
Q 3963 3931 3569 4081 
Q 3175 4231 2741 4231 
Q 1884 4231 1454 3753 
Q 1025 3275 1025 2328 
Q 1025 1384 1454 906 
Q 1884 428 2741 428 
Q 3075 428 3337 486 
Q 3600 544 3809 666 
z
" transform="scale(0.015625)"/>
       <path id="DejaVuSans-72" d="M 2631 2963 
Q 2534 3019 2420 3045 
Q 2306 3072 2169 3072 
Q 1681 3072 1420 2755 
Q 1159 2438 1159 1844 
L 1159 0 
L 581 0 
L 581 3500 
L 1159 3500 
L 1159 2956 
Q 1341 3275 1631 3429 
Q 1922 3584 2338 3584 
Q 2397 3584 2469 3576 
Q 2541 3569 2628 3553 
L 2631 2963 
z
" transform="scale(0.015625)"/>
       <path id="DejaVuSans-61" d="M 2194 1759 
Q 1497 1759 1228 1600 
Q 959 1441 959 1056 
Q 959 750 1161 570 
Q 1363 391 1709 391 
Q 2188 391 2477 730 
Q 2766 1069 2766 1631 
L 2766 1759 
L 2194 1759 
z
M 3341 1997 
L 3341 0 
L 2766 0 
L 2766 531 
Q 2569 213 2275 61 
Q 1981 -91 1556 -91 
Q 1019 -91 701 211 
Q 384 513 384 1019 
Q 384 1609 779 1909 
Q 1175 2209 1959 2209 
L 2766 2209 
L 2766 2266 
Q 2766 2663 2505 2880 
Q 2244 3097 1772 3097 
Q 1472 3097 1187 3025 
Q 903 2953 641 2809 
L 641 3341 
Q 956 3463 1253 3523 
Q 1550 3584 1831 3584 
Q 2591 3584 2966 3190 
Q 3341 2797 3341 1997 
z
" transform="scale(0.015625)"/>
       <path id="DejaVuSans-70" d="M 1159 525 
L 1159 -1331 
L 581 -1331 
L 581 3500 
L 1159 3500 
L 1159 2969 
Q 1341 3281 1617 3432 
Q 1894 3584 2278 3584 
Q 2916 3584 3314 3078 
Q 3713 2572 3713 1747 
Q 3713 922 3314 415 
Q 2916 -91 2278 -91 
Q 1894 -91 1617 61 
Q 1341 213 1159 525 
z
M 3116 1747 
Q 3116 2381 2855 2742 
Q 2594 3103 2138 3103 
Q 1681 3103 1420 2742 
Q 1159 2381 1159 1747 
Q 1159 1113 1420 752 
Q 1681 391 2138 391 
Q 2594 391 2855 752 
Q 3116 1113 3116 1747 
z
" transform="scale(0.015625)"/>
       <path id="DejaVuSans-68" d="M 3513 2113 
L 3513 0 
L 2938 0 
L 2938 2094 
Q 2938 2591 2744 2837 
Q 2550 3084 2163 3084 
Q 1697 3084 1428 2787 
Q 1159 2491 1159 1978 
L 1159 0 
L 581 0 
L 581 4863 
L 1159 4863 
L 1159 2956 
Q 1366 3272 1645 3428 
Q 1925 3584 2291 3584 
Q 2894 3584 3203 3211 
Q 3513 2838 3513 2113 
z
" transform="scale(0.015625)"/>
       <path id="DejaVuSans-20" transform="scale(0.015625)"/>
       <path id="DejaVuSans-2b" d="M 2944 4013 
L 2944 2272 
L 4684 2272 
L 4684 1741 
L 2944 1741 
L 2944 0 
L 2419 0 
L 2419 1741 
L 678 1741 
L 678 2272 
L 2419 2272 
L 2419 4013 
L 2944 4013 
z
" transform="scale(0.015625)"/>
       <path id="DejaVuSans-4c" d="M 628 4666 
L 1259 4666 
L 1259 531 
L 3531 531 
L 3531 0 
L 628 0 
L 628 4666 
z
" transform="scale(0.015625)"/>
       <path id="DejaVuSans-4d" d="M 628 4666 
L 1569 4666 
L 2759 1491 
L 3956 4666 
L 4897 4666 
L 4897 0 
L 4281 0 
L 4281 4097 
L 3078 897 
L 2444 897 
L 1241 4097 
L 1241 0 
L 628 0 
L 628 4666 
z
" transform="scale(0.015625)"/>
      </defs>
      <use xlink:href="#DejaVuSans-47"/>
      <use xlink:href="#DejaVuSans-72" x="77.490234"/>
      <use xlink:href="#DejaVuSans-61" x="118.603516"/>
      <use xlink:href="#DejaVuSans-70" x="179.882812"/>
      <use xlink:href="#DejaVuSans-68" x="243.359375"/>
      <use xlink:href="#DejaVuSans-20" x="306.738281"/>
      <use xlink:href="#DejaVuSans-2b" x="338.525391"/>
      <use xlink:href="#DejaVuSans-20" x="422.314453"/>
      <use xlink:href="#DejaVuSans-4c" x="454.101562"/>
      <use xlink:href="#DejaVuSans-4c" x="509.814453"/>
      <use xlink:href="#DejaVuSans-4d" x="565.527344"/>
     </g>
    </g>
    <g id="patch_6">
     <path d="M 636.87375 657.056562 
L 690.87375 657.056562 
L 690.87375 644.456562 
L 636.87375 644.456562 
z
" style="fill: #166c9c; opacity: 0.8; stroke: #808080; stroke-width: 0.8; stroke-linejoin: miter"/>
    </g>
    <g id="text_7">
     <!-- Vanilla LLM -->
     <g transform="translate(708.87375 657.056562) scale(0.18 -0.18)">
      <defs>
       <path id="DejaVuSans-56" d="M 1831 0 
L 50 4666 
L 709 4666 
L 2188 738 
L 3669 4666 
L 4325 4666 
L 2547 0 
L 1831 0 
z
" transform="scale(0.015625)"/>
       <path id="DejaVuSans-6e" d="M 3513 2113 
L 3513 0 
L 2938 0 
L 2938 2094 
Q 2938 2591 2744 2837 
Q 2550 3084 2163 3084 
Q 1697 3084 1428 2787 
Q 1159 2491 1159 1978 
L 1159 0 
L 581 0 
L 581 3500 
L 1159 3500 
L 1159 2956 
Q 1366 3272 1645 3428 
Q 1925 3584 2291 3584 
Q 2894 3584 3203 3211 
Q 3513 2838 3513 2113 
z
" transform="scale(0.015625)"/>
       <path id="DejaVuSans-69" d="M 603 3500 
L 1178 3500 
L 1178 0 
L 603 0 
L 603 3500 
z
M 603 4863 
L 1178 4863 
L 1178 4134 
L 603 4134 
L 603 4863 
z
" transform="scale(0.015625)"/>
       <path id="DejaVuSans-6c" d="M 603 4863 
L 1178 4863 
L 1178 0 
L 603 0 
L 603 4863 
z
" transform="scale(0.015625)"/>
      </defs>
      <use xlink:href="#DejaVuSans-56"/>
      <use xlink:href="#DejaVuSans-61" x="60.658203"/>
      <use xlink:href="#DejaVuSans-6e" x="121.9375"/>
      <use xlink:href="#DejaVuSans-69" x="185.316406"/>
      <use xlink:href="#DejaVuSans-6c" x="213.099609"/>
      <use xlink:href="#DejaVuSans-6c" x="240.882812"/>
      <use xlink:href="#DejaVuSans-61" x="268.666016"/>
      <use xlink:href="#DejaVuSans-20" x="329.945312"/>
      <use xlink:href="#DejaVuSans-4c" x="361.732422"/>
      <use xlink:href="#DejaVuSans-4c" x="417.445312"/>
      <use xlink:href="#DejaVuSans-4d" x="473.158203"/>
     </g>
    </g>
   </g>
  </g>
 </g>
 <defs>
  <clipPath id="p88489f6649">
   <rect x="7.2" y="7.2" width="842.4" height="677"/>
  </clipPath>
 </defs>
</svg>
